<?xml version="1.0" encoding="UTF-8" standalone="no"?>
<!DOCTYPE svg PUBLIC "-//W3C//DTD SVG 20010904//EN" "http://www.w3.org/TR/2001/REC-SVG-20010904/DTD/svg10.dtd">
<!-- Vetor convertido de PNG por @DjEdu28 usando GIMP 3-->
<svg xmlns="http://www.w3.org/2000/svg"
     width="263.139mm" height="296.296mm"
     viewBox="0 0 746 840">
  <path id="dj-vetor-logo-trilhas"
        fill="orangered" 
        stroke="black" 
        stroke-width="1"
        d="M 63.00,359.00
           C 59.93,355.42 54.01,346.05 49.99,344.93
             46.40,343.90 42.67,346.70 38.06,344.93
             35.32,343.92 33.93,341.96 35.23,339.08
             36.12,337.13 43.98,329.96 46.00,328.09
             46.00,328.09 67.00,308.83 67.00,308.83
             70.71,305.49 74.12,301.49 79.00,299.85
             86.17,297.44 89.78,301.65 94.00,301.57
             98.90,301.48 106.66,294.60 109.67,291.00
             113.89,285.95 116.51,280.33 118.11,274.00
             119.26,269.40 120.43,261.94 123.65,258.39
             127.80,253.81 142.34,254.74 146.36,244.96
             148.08,240.79 144.05,237.20 145.22,230.00
             146.00,225.22 153.59,213.66 156.40,209.00
             161.57,200.43 167.47,191.44 174.17,184.00
             177.11,180.73 185.11,173.69 186.21,170.00
             188.22,163.18 176.76,159.77 178.47,152.04
             180.04,144.96 192.26,144.88 197.26,136.96
             200.75,131.43 195.71,129.02 195.33,124.00
             194.81,117.28 204.32,105.75 210.00,103.00
             207.42,107.09 198.19,118.42 197.65,122.00
             196.88,127.14 204.13,131.15 198.49,138.98
             194.18,144.97 187.39,146.42 184.06,148.81
             181.93,150.34 180.21,152.21 181.17,155.00
             182.52,158.95 190.94,163.66 188.26,171.00
             187.12,174.13 175.53,185.97 172.26,190.00
             164.57,199.47 154.40,216.08 148.60,227.00
             142.76,238.00 153.50,240.05 147.57,247.96
             139.89,258.19 129.85,254.19 124.51,261.06
             121.20,265.30 120.34,274.52 118.53,280.00
             115.50,289.20 110.11,295.64 102.00,300.77
             99.19,302.54 96.42,303.89 93.00,303.58
             88.79,303.20 85.03,299.94 80.00,301.74
             75.12,303.48 66.85,312.19 63.00,316.00
             55.50,323.40 41.48,334.34 36.00,342.00
             45.97,345.71 45.55,341.42 50.96,342.74
             55.65,343.89 61.20,352.77 63.00,357.00
             64.46,356.03 65.27,355.34 67.00,354.72
             77.49,350.98 80.09,361.55 87.00,366.35
             92.34,370.06 95.08,367.98 98.91,370.60
             101.26,372.20 104.35,376.62 106.21,379.00
             112.19,386.63 117.55,393.89 117.96,404.00
             117.96,404.00 116.62,424.00 116.62,424.00
             117.63,429.80 123.02,433.11 123.40,438.00
             123.72,442.21 119.15,447.01 117.21,456.00
             117.21,456.00 114.24,480.00 114.24,480.00
             111.10,492.24 101.11,500.02 90.00,505.00
             90.00,505.00 90.00,507.00 90.00,507.00
             97.61,508.79 104.15,512.28 107.04,520.00
             108.75,524.58 107.96,528.20 110.87,533.00
             110.87,533.00 120.77,546.00 120.77,546.00
             120.77,546.00 130.19,560.00 130.19,560.00
             130.19,560.00 139.76,574.94 139.76,574.94
             141.34,576.87 143.19,578.86 145.92,577.83
             147.50,577.24 154.90,568.98 157.00,567.00
             145.29,563.11 147.27,555.15 158.00,552.00
             158.00,552.00 153.00,561.00 153.00,561.00
             153.00,561.00 159.00,567.00 159.00,567.00
             162.92,562.85 163.89,556.48 165.00,551.00
             165.00,551.00 169.00,552.00 169.00,552.00
             169.00,552.00 166.00,565.00 166.00,565.00
             166.00,565.00 173.00,564.00 173.00,564.00
             173.00,564.00 170.00,558.00 170.00,558.00
             176.94,559.12 177.20,561.91 181.28,566.82
             183.92,569.99 186.94,572.05 188.73,576.01
             191.53,582.26 189.23,587.10 187.59,593.00
             186.47,597.03 186.80,599.44 183.72,602.89
             177.45,609.96 168.81,606.80 162.57,615.04
             158.16,620.87 161.39,627.85 156.99,634.99
             152.07,642.98 141.17,644.07 141.64,651.00
             141.85,654.11 146.13,659.37 148.00,662.00
             148.00,662.00 167.30,687.90 167.30,687.90
             172.27,693.13 185.08,696.55 177.67,709.00
             177.67,709.00 174.00,714.00 174.00,714.00
             176.69,716.34 187.58,727.46 189.35,730.00
             192.09,733.91 192.27,737.35 194.51,739.42
             196.29,741.06 200.55,741.82 203.00,742.70
             208.55,744.69 211.99,746.86 215.00,752.00
             216.92,747.86 219.94,740.40 220.68,736.00
             222.11,727.41 219.29,726.89 223.24,711.00
             224.56,705.67 229.25,698.16 228.79,694.00
             228.41,690.59 225.71,688.47 223.90,681.00
             223.90,681.00 221.10,653.00 221.10,653.00
             221.10,653.00 222.61,643.00 222.61,643.00
             224.54,633.39 230.80,626.34 235.57,618.00
             239.12,611.80 250.39,589.16 251.81,583.00
             251.81,583.00 251.81,569.00 251.81,569.00
             248.59,568.52 245.10,567.91 242.00,566.32
             224.87,557.55 230.93,536.21 231.00,521.00
             231.00,521.00 231.00,515.00 231.00,515.00
             227.44,516.03 221.70,517.66 218.06,516.69
             215.25,515.93 213.26,513.18 215.62,510.74
             220.31,505.86 229.03,513.66 230.00,502.00
             230.00,502.00 221.00,502.00 221.00,502.00
             211.20,501.88 199.76,499.38 193.65,490.96
             183.91,477.56 194.04,455.38 205.04,446.09
             208.93,442.80 214.44,439.60 219.00,437.26
             221.66,435.90 226.66,433.95 228.40,431.73
             229.87,429.86 229.82,428.21 230.00,426.00
             218.77,428.93 214.37,418.03 212.24,409.00
             212.24,409.00 210.17,398.00 210.17,398.00
             210.17,398.00 209.61,390.00 209.61,390.00
             208.48,384.63 206.52,384.35 205.40,373.00
             204.93,367.29 206.80,366.14 205.40,359.00
             203.12,348.19 196.42,335.84 197.04,325.00
             197.71,313.38 211.08,312.25 220.00,310.34
             222.70,309.76 227.40,309.10 228.98,306.69
             231.00,303.60 228.69,298.84 232.11,291.00
             237.61,278.36 249.93,280.98 261.00,281.00
             261.00,281.00 283.00,281.00 283.00,281.00
             283.00,281.00 299.00,282.00 299.00,282.00
             299.00,282.00 370.00,282.00 370.00,282.00
             370.00,282.00 385.00,281.00 385.00,281.00
             385.00,281.00 403.00,281.00 403.00,281.00
             405.14,281.00 407.95,281.09 409.99,280.49
             416.26,278.65 421.85,269.47 435.00,270.21
             440.35,270.51 446.38,272.68 451.00,275.34
             453.61,276.84 457.43,280.33 460.09,280.67
             468.17,281.70 469.98,270.85 473.13,266.01
             477.00,260.08 481.14,259.50 484.79,255.79
             489.61,250.90 490.81,243.40 489.00,237.00
             488.64,240.35 486.88,247.83 483.59,249.43
             481.85,250.26 475.24,250.00 473.00,250.00
             473.00,250.00 484.14,220.00 484.14,220.00
             485.73,216.14 488.32,208.32 490.85,205.34
             494.38,201.18 503.72,200.64 507.74,204.31
             511.33,207.60 513.28,214.31 514.00,219.00
             517.17,218.57 524.22,217.73 526.41,215.44
             528.85,212.89 527.31,209.41 532.11,205.65
             536.30,202.35 540.58,202.65 544.00,201.08
             549.15,198.72 557.43,191.21 556.73,185.00
             556.43,182.34 554.13,178.74 553.00,176.00
             550.84,178.11 547.92,181.27 545.00,182.17
             541.61,183.22 536.56,180.98 533.00,180.56
             533.00,180.56 525.00,180.56 525.00,180.56
             522.43,180.42 510.27,177.37 508.09,176.24
             502.99,173.58 502.99,169.39 495.00,162.17
             482.96,151.29 469.84,145.09 454.00,142.43
             451.57,142.03 441.84,140.41 440.06,140.88
             434.69,142.32 437.01,149.25 430.96,150.93
             427.34,151.93 423.18,149.15 420.00,149.19
             416.73,149.23 414.94,151.38 412.00,152.43
             407.25,154.13 398.02,154.25 392.00,157.99
             382.00,164.22 381.58,176.40 373.01,174.53
             368.68,173.58 366.17,169.14 368.19,165.04
             369.93,161.50 374.08,159.63 376.28,156.70
             378.36,153.93 378.72,150.34 379.00,147.00
             377.08,147.02 374.82,146.93 373.00,147.60
             364.51,150.74 361.04,162.90 361.00,171.00
             360.98,175.36 361.65,181.24 359.26,184.98
             354.44,192.55 346.68,190.82 340.00,202.00
             344.52,202.00 349.85,201.58 354.00,203.57
             362.42,207.61 364.99,217.98 360.43,225.91
             358.96,228.48 356.14,230.93 354.00,233.00
             357.94,236.95 362.08,244.48 363.00,250.00
             363.00,250.00 352.33,248.98 352.33,248.98
             352.33,248.98 340.82,234.02 340.82,234.02
             340.82,234.02 332.00,233.00 332.00,233.00
             332.00,233.00 332.00,250.00 332.00,250.00
             332.00,250.00 321.00,250.00 321.00,250.00
             321.00,250.00 321.00,232.00 321.00,232.00
             321.05,229.68 321.01,227.20 322.60,225.31
             324.53,223.03 327.27,223.05 330.00,223.00
             333.79,222.93 343.99,223.45 346.95,222.27
             351.23,220.55 352.30,216.44 347.88,214.01
             345.87,212.90 343.23,213.02 341.00,213.00
             341.00,213.00 321.00,213.00 321.00,213.00
             321.00,208.42 320.57,203.23 322.57,199.00
             324.73,194.42 328.67,191.86 330.53,186.00
             332.22,179.58 329.57,173.08 330.53,168.01
             332.00,162.18 335.64,161.46 337.35,156.00
             338.78,151.42 336.84,146.68 340.70,141.02
             344.01,136.16 348.43,135.12 351.49,130.96
             355.36,125.69 353.34,121.68 348.00,119.00
             346.02,124.09 341.14,131.32 336.00,133.55
             329.44,136.40 324.62,130.10 325.71,126.01
             326.73,122.14 332.00,119.64 335.00,117.39
             340.15,113.54 344.09,109.51 345.00,103.00
             345.00,103.00 347.00,103.00 347.00,103.00
             346.20,110.52 342.06,115.26 335.96,119.46
             333.32,121.27 327.25,123.93 328.34,127.98
             329.65,132.86 334.70,132.21 337.71,129.60
             341.73,126.13 348.98,111.14 354.55,121.11
             360.77,132.26 344.88,137.34 341.45,144.01
             339.27,148.26 340.63,151.41 339.07,157.00
             337.22,163.65 333.79,164.07 332.64,169.00
             331.83,172.25 333.75,178.83 332.64,185.00
             331.42,192.17 327.15,196.45 323.00,202.00
             326.20,202.00 334.13,202.51 336.63,200.98
             339.17,199.42 339.89,196.19 346.00,192.10
             351.12,188.67 356.44,187.51 358.94,181.00
             360.24,177.22 358.86,172.32 358.94,168.00
             359.32,161.04 363.59,149.55 370.04,146.17
             372.95,144.65 377.71,145.00 381.00,145.00
             380.72,148.50 380.15,155.07 378.26,157.91
             376.23,160.97 371.31,163.78 370.25,166.99
             369.49,169.27 370.81,171.52 373.11,172.12
             375.79,172.81 377.84,170.84 379.39,168.94
             383.50,163.93 383.30,160.41 390.00,156.53
             395.76,153.20 402.73,152.67 409.00,150.79
             412.58,149.72 414.61,147.74 418.00,147.24
             423.26,146.46 427.53,149.82 430.77,148.50
             435.45,146.60 432.48,139.26 440.02,138.63
             440.02,138.63 452.00,140.13 452.00,140.13
             469.84,142.69 482.08,148.05 495.96,159.80
             503.27,165.99 504.47,171.85 510.01,174.69
             516.75,178.14 526.70,178.51 534.00,179.09
             536.78,179.31 540.75,180.72 543.00,180.31
             547.58,179.47 547.60,175.95 554.00,174.00
             555.23,176.20 557.59,179.84 558.30,182.00
             561.51,191.66 554.04,196.23 548.00,202.00
             551.48,202.00 563.99,201.08 565.98,203.60
             567.36,205.34 567.00,210.72 567.00,213.00
             567.00,213.00 550.00,213.00 550.00,213.00
             547.12,213.00 539.48,212.55 539.48,217.00
             539.48,218.25 540.28,219.18 541.27,219.83
             546.37,223.16 565.90,216.62 569.78,230.00
             570.04,231.72 570.04,235.15 569.78,237.00
             569.56,251.58 556.44,250.00 546.00,250.00
             546.00,250.00 528.00,250.00 528.00,250.00
             528.00,247.77 527.63,242.43 528.99,240.74
             530.48,238.89 533.85,239.03 536.00,239.00
             536.00,239.00 551.00,239.00 551.00,239.00
             553.40,238.95 559.88,238.48 557.83,234.30
             556.35,231.26 549.87,232.09 547.00,231.96
             536.67,231.51 528.31,229.89 528.00,218.00
             528.00,218.00 516.00,221.00 516.00,221.00
             516.00,221.00 526.00,250.00 526.00,250.00
             526.00,250.00 514.00,250.00 514.00,250.00
             514.00,250.00 504.00,223.00 504.00,223.00
             499.50,226.41 494.72,230.47 492.85,236.00
             491.31,240.57 492.70,247.30 489.16,253.96
             485.96,260.00 481.76,259.63 476.21,266.02
             473.01,269.70 470.87,276.23 468.00,281.00
             468.00,281.00 511.00,281.00 511.00,281.00
             513.22,281.00 516.81,281.21 518.69,279.98
             520.97,278.48 520.95,275.91 522.56,273.01
             525.44,267.85 530.14,265.17 536.00,265.05
             541.99,264.93 546.73,267.65 549.55,273.00
             550.96,275.69 551.00,278.46 553.31,279.98
             555.19,281.21 558.78,281.00 561.00,281.00
             561.00,281.00 597.00,281.00 597.00,281.00
             609.45,281.02 620.31,283.25 625.53,296.00
             629.08,304.69 627.98,316.56 628.00,326.00
             628.03,338.56 633.91,337.69 641.53,352.00
             647.78,363.75 647.15,369.28 647.00,382.00
             646.90,390.25 642.73,402.91 638.53,410.00
             638.53,410.00 628.60,423.09 628.60,423.09
             627.83,425.05 628.00,428.82 628.00,431.00
             641.28,417.07 652.38,400.40 655.00,381.00
             655.56,381.40 656.19,381.36 656.83,382.54
             658.22,385.08 654.95,395.13 653.91,398.00
             650.72,406.86 644.49,416.23 638.66,423.58
             633.91,429.57 628.15,434.09 628.00,442.00
             628.00,442.00 628.00,544.00 628.00,544.00
             627.82,558.70 619.03,565.88 605.00,567.90
             605.00,567.90 596.00,567.90 596.00,567.90
             596.00,567.90 584.00,569.00 584.00,569.00
             584.00,569.00 506.00,569.00 506.00,569.00
             496.21,569.02 499.03,570.11 491.00,573.12
             491.00,573.12 478.00,576.77 478.00,576.77
             464.59,579.88 450.70,580.16 437.00,580.00
             423.61,579.84 404.26,576.59 391.00,573.79
             382.34,571.96 373.89,569.01 365.00,569.00
             365.00,569.00 253.81,569.00 253.81,569.00
             253.81,569.00 253.81,584.00 253.81,584.00
             252.41,590.06 242.01,610.93 238.58,617.00
             234.35,624.48 226.09,636.40 224.24,644.00
             222.15,652.59 223.62,672.50 225.93,681.00
             227.70,687.56 230.90,689.75 230.85,695.00
             230.80,700.73 226.49,705.98 224.80,713.00
             220.89,729.30 223.43,725.51 222.91,734.00
             222.43,741.74 218.19,748.44 217.00,756.00
             212.53,752.32 210.36,748.86 205.00,745.90
             199.32,742.77 196.04,743.45 193.27,741.27
             190.33,738.94 190.59,735.82 187.08,731.09
             183.70,726.54 175.95,720.63 173.62,716.00
             170.36,709.53 181.37,705.73 176.26,698.10
             174.01,694.75 170.17,693.87 166.09,689.90
             166.09,689.90 147.29,665.00 147.29,665.00
             145.00,661.79 140.19,655.70 139.43,652.00
             137.67,643.38 148.85,641.55 154.35,634.71
             160.69,626.84 155.11,620.17 161.79,612.21
             166.67,606.39 174.16,607.26 179.96,603.15
             185.83,598.99 185.10,594.97 186.78,589.00
             187.42,586.70 188.59,584.44 188.40,582.00
             188.13,578.27 183.66,571.36 180.00,570.32
             176.06,569.20 175.93,573.17 169.00,572.00
             169.00,572.00 174.00,566.00 174.00,566.00
             165.98,566.40 165.24,567.61 163.00,575.00
             163.00,575.00 160.00,575.00 160.00,575.00
             160.00,575.00 160.00,569.00 160.00,569.00
             150.69,574.01 150.73,580.47 144.99,580.63
             138.41,580.81 130.79,565.17 127.58,560.00
             127.58,560.00 108.70,534.00 108.70,534.00
             106.21,529.66 107.66,527.23 105.52,522.00
             102.22,513.93 95.11,509.90 87.00,508.00
             90.81,500.02 95.73,499.93 101.91,495.07
             106.65,491.35 110.49,485.84 112.07,480.00
             112.07,480.00 115.52,454.00 115.52,454.00
             116.91,447.50 121.05,441.75 121.08,439.00
             121.11,435.64 117.61,432.58 116.09,429.00
             114.77,425.91 114.97,422.31 115.00,419.00
             115.07,413.05 116.55,408.07 115.82,402.00
             114.84,393.92 108.89,386.22 104.00,380.00
             102.53,378.13 99.42,373.87 97.70,372.60
             94.63,370.33 92.47,371.63 88.00,369.59
             78.82,365.37 77.78,356.43 71.00,356.10
             68.38,355.97 65.29,357.83 63.00,359.00 Z
           M 292.00,213.00
           C 289.46,213.00 282.44,213.44 280.60,211.98
             279.15,210.83 275.76,202.21 287.00,202.00
             287.00,202.00 310.00,202.00 310.00,202.00
             311.95,202.04 314.63,201.90 315.98,203.60
             317.36,205.34 317.00,210.72 317.00,213.00
             317.00,213.00 303.00,213.00 303.00,213.00
             303.00,213.00 303.00,250.00 303.00,250.00
             303.00,250.00 293.60,248.98 293.60,248.98
             293.60,248.98 292.00,242.00 292.00,242.00
             292.00,242.00 292.00,213.00 292.00,213.00 Z
           M 368.00,250.00
           C 368.00,250.00 368.00,211.00 368.00,211.00
             368.00,209.01 367.77,205.19 369.02,203.60
             370.68,201.50 376.32,201.50 377.98,203.60
             379.15,205.07 378.99,208.18 379.00,210.00
             379.00,210.00 379.00,250.00 379.00,250.00
             379.00,250.00 368.00,250.00 368.00,250.00 Z
           M 387.00,202.00
           C 387.00,202.00 397.00,202.00 397.00,202.00
             397.00,202.00 397.00,228.00 397.00,228.00
             397.05,231.16 397.07,234.25 399.43,236.69
             402.80,240.16 412.28,238.92 417.00,239.00
             419.35,239.05 422.19,238.85 423.40,241.31
             424.21,242.96 424.00,247.99 424.00,250.00
             415.66,250.00 398.69,251.75 392.18,246.89
             387.73,243.57 387.07,240.22 387.00,235.00
             387.00,235.00 387.00,202.00 387.00,202.00 Z
           M 428.00,250.00
           C 428.00,250.00 428.00,211.00 428.00,211.00
             428.00,209.01 427.77,205.19 429.02,203.60
             429.88,202.51 438.80,198.24 439.00,209.00
             439.04,211.57 438.63,216.59 440.02,218.69
             442.35,222.17 453.93,221.00 458.00,221.00
             458.00,217.62 457.44,206.69 459.02,204.31
             460.76,201.71 466.96,201.04 468.98,203.60
             470.15,205.07 469.99,208.18 470.00,210.00
             470.00,210.00 470.00,250.00 470.00,250.00
             467.59,250.00 461.40,250.40 459.60,248.98
             457.10,247.00 458.00,235.39 458.00,232.00
             458.00,232.00 439.00,232.00 439.00,232.00
             439.00,232.00 439.00,250.00 439.00,250.00
             439.00,250.00 428.00,250.00 428.00,250.00 Z
           M 501.00,213.00
           C 501.00,213.00 499.00,213.00 499.00,213.00
             497.29,217.29 492.94,225.74 494.00,230.00
             494.00,230.00 502.50,219.82 502.50,219.82
             502.50,219.82 501.00,213.00 501.00,213.00 Z
           M 493.00,230.00
           C 493.00,230.00 492.00,230.00 492.00,230.00
             492.00,230.00 493.00,231.00 493.00,231.00
             493.00,231.00 493.00,230.00 493.00,230.00 Z
           M 532.00,314.00
           C 537.20,305.69 549.39,289.88 548.86,280.00
             548.17,267.29 531.00,262.85 524.84,275.00
             519.42,285.69 526.47,303.41 530.00,314.00
             530.00,314.00 532.00,314.00 532.00,314.00 Z
           M 449.00,277.00
           C 443.49,274.81 438.06,272.68 432.00,273.10
             420.58,273.88 407.01,286.43 404.00,297.00
             404.00,297.00 429.00,311.00 429.00,311.00
             431.68,303.75 427.78,301.88 433.61,294.00
             440.77,284.33 446.14,289.67 449.00,277.00 Z
           M 531.02,272.74
           C 534.88,271.81 538.56,271.58 541.77,274.43
             547.26,279.30 545.86,290.10 538.96,292.85
             527.49,297.42 518.35,279.73 531.02,272.74 Z
           M 532.06,275.60
           C 522.92,281.15 529.79,293.19 537.95,290.09
             543.41,288.02 544.00,280.11 539.70,276.60
             537.32,274.66 534.79,275.04 532.06,275.60 Z
           M 645.00,276.56
           C 650.70,275.58 655.34,276.14 659.61,280.48
             666.69,287.66 665.90,303.49 653.00,307.06
             635.03,312.03 624.67,283.68 645.00,276.56 Z
           M 452.00,279.00
           C 447.64,285.59 447.34,286.46 446.82,294.00
             446.48,298.99 442.84,303.61 438.99,306.57
             436.38,308.58 433.16,309.31 432.49,311.26
             431.68,313.63 434.36,315.44 436.02,316.53
             439.91,319.09 449.60,323.95 454.00,325.00
             454.00,325.00 461.14,312.00 461.14,312.00
             465.64,300.06 460.89,287.43 452.00,279.00 Z
           M 645.00,279.51
           C 629.66,286.04 637.77,308.49 653.00,304.06
             663.16,301.09 662.76,287.66 657.61,282.34
             654.01,278.63 649.72,278.67 645.00,279.51 Z
           M 386.00,284.00
           C 386.00,284.00 269.00,284.00 269.00,284.00
             269.00,284.00 254.00,283.00 254.00,283.00
             247.68,282.93 241.12,283.06 236.65,288.33
             232.58,293.10 231.98,304.76 234.00,307.00
             234.77,307.84 235.49,307.79 236.00,308.00
             232.47,293.47 239.03,285.18 254.00,285.00
             254.00,285.00 346.00,285.00 346.00,285.00
             346.00,285.00 372.00,285.00 372.00,285.00
             376.44,285.00 381.88,285.64 386.00,284.00 Z
           M 520.00,285.00
           C 518.11,282.89 517.61,283.04 515.00,284.00
             515.00,284.00 520.00,285.00 520.00,285.00 Z
           M 611.00,285.00
           C 611.00,285.00 572.00,284.00 572.00,284.00
             572.00,284.00 562.00,283.04 562.00,283.04
             562.00,283.04 551.00,283.04 551.00,283.04
             551.00,283.04 551.00,285.00 551.00,285.00
             551.00,285.00 577.00,285.00 577.00,285.00
             585.15,285.01 604.13,287.72 611.00,285.00 Z
           M 409.00,284.00
           C 409.00,284.00 405.00,284.00 405.00,284.00
             405.00,284.00 396.00,297.00 396.00,297.00
             395.19,290.26 393.05,291.01 387.00,291.00
             387.00,291.00 361.00,291.00 361.00,291.00
             361.00,291.00 344.00,292.00 344.00,292.00
             344.00,292.00 326.00,292.00 326.00,292.00
             326.00,292.00 314.00,292.96 314.00,292.96
             314.00,292.96 301.00,292.96 301.00,292.96
             290.27,293.02 279.61,295.13 269.00,296.58
             269.00,296.58 260.00,297.37 260.00,297.37
             253.92,298.54 241.35,302.84 237.00,307.00
             237.00,307.00 251.00,304.16 251.00,304.16
             251.00,304.16 301.00,299.83 301.00,299.83
             301.00,299.83 338.00,295.85 338.00,295.85
             338.00,295.85 354.00,295.85 354.00,295.85
             364.68,294.17 367.36,291.98 380.00,292.00
             383.31,292.00 387.03,291.72 389.87,293.74
             393.55,296.36 393.40,300.26 395.00,304.00
             395.00,304.00 409.00,284.00 409.00,284.00 Z
           M 464.00,284.00
           C 464.00,284.00 460.00,284.00 460.00,284.00
             460.00,284.00 463.00,289.00 463.00,289.00
             463.00,289.00 464.00,284.00 464.00,284.00 Z
           M 514.00,284.00
           C 514.00,284.00 480.00,284.00 480.00,284.00
             475.05,284.00 469.15,282.95 465.00,286.00
             465.00,286.00 496.00,285.00 496.00,285.00
             496.00,285.00 514.00,284.00 514.00,284.00 Z
           M 551.00,287.00
           C 551.00,287.00 550.00,287.00 550.00,287.00
             550.00,287.00 551.00,288.00 551.00,288.00
             551.00,288.00 551.00,287.00 551.00,287.00 Z
           M 615.00,287.00
           C 615.00,287.00 614.00,287.00 614.00,287.00
             614.00,287.00 615.00,288.00 615.00,288.00
             615.00,288.00 615.00,287.00 615.00,287.00 Z
           M 521.00,289.00
           C 516.60,297.32 514.43,294.29 506.00,295.28
             506.00,295.28 483.00,297.00 483.00,297.00
             483.00,297.00 471.00,298.00 471.00,298.00
             471.00,298.00 474.00,304.00 474.00,304.00
             479.07,301.45 489.71,298.72 494.78,302.60
             496.79,304.14 497.23,305.76 498.00,308.00
             498.00,308.00 525.00,308.00 525.00,308.00
             525.00,308.00 521.00,289.00 521.00,289.00 Z
           M 550.00,289.00
           C 550.00,289.00 549.00,289.00 549.00,289.00
             549.00,289.00 550.00,290.00 550.00,290.00
             550.00,290.00 550.00,289.00 550.00,289.00 Z
           M 618.00,289.00
           C 618.00,289.00 617.00,289.00 617.00,289.00
             617.00,289.00 618.00,290.00 618.00,290.00
             618.00,290.00 618.00,289.00 618.00,289.00 Z
           M 619.00,290.00
           C 619.00,290.00 618.00,290.00 618.00,290.00
             618.00,290.00 619.00,291.00 619.00,291.00
             619.00,291.00 619.00,290.00 619.00,290.00 Z
           M 620.00,291.00
           C 620.00,291.00 619.00,291.00 619.00,291.00
             619.00,291.00 620.00,292.00 620.00,292.00
             620.00,292.00 620.00,291.00 620.00,291.00 Z
           M 549.00,292.00
           C 549.00,292.00 548.00,292.00 548.00,292.00
             548.00,292.00 549.00,293.00 549.00,293.00
             549.00,293.00 549.00,292.00 549.00,292.00 Z
           M 621.00,293.00
           C 621.00,293.00 620.00,293.00 620.00,293.00
             620.00,293.00 621.00,294.00 621.00,294.00
             621.00,294.00 621.00,293.00 621.00,293.00 Z
           M 392.00,308.00
           C 391.84,304.49 391.53,297.97 388.69,295.60
             386.34,293.63 381.94,293.97 379.00,294.00
             379.00,294.00 354.00,297.86 354.00,297.86
             354.00,297.86 340.00,297.86 340.00,297.86
             340.00,297.86 299.00,302.28 299.00,302.28
             299.00,302.28 282.00,304.00 282.00,304.00
             282.00,304.00 260.00,305.17 260.00,305.17
             257.90,305.37 253.35,305.85 252.03,307.59
             249.68,310.68 252.35,319.68 256.21,320.69
             258.39,321.26 268.95,319.46 272.00,319.08
             272.00,319.08 297.00,319.08 297.00,319.08
             312.38,318.98 324.05,314.57 339.00,312.21
             339.00,312.21 361.00,312.21 361.00,312.21
             361.00,312.21 392.00,308.00 392.00,308.00 Z
           M 623.00,371.00
           C 623.00,371.00 614.66,320.00 614.66,320.00
             613.68,315.36 613.17,305.59 609.70,302.56
             606.78,300.02 598.01,299.14 594.00,298.39
             594.00,298.39 547.00,294.00 547.00,294.00
             547.00,294.00 539.00,308.00 539.00,308.00
             539.00,308.00 555.00,308.00 555.00,308.00
             556.94,307.99 559.80,308.15 561.42,306.98
             563.27,305.65 563.03,303.27 566.14,301.60
             569.69,299.38 581.46,299.24 584.77,301.60
             587.11,303.50 587.43,305.35 588.00,308.00
             591.87,308.00 601.54,306.88 603.83,310.31
             605.22,312.41 605.00,316.52 605.00,319.00
             605.00,319.00 605.00,335.00 605.00,335.00
             605.01,344.02 608.11,350.35 610.58,359.00
             613.52,369.33 615.99,381.26 616.00,392.00
             624.97,393.16 625.98,393.41 626.00,384.00
             626.00,384.00 626.00,326.00 626.00,326.00
             626.00,318.84 626.51,305.04 623.00,299.00
             623.00,299.00 624.00,346.00 624.00,346.00
             624.00,346.00 623.00,371.00 623.00,371.00 Z
           M 466.00,296.00
           C 466.00,296.00 465.00,308.00 465.00,308.00
             465.00,308.00 472.00,308.00 472.00,308.00
             471.59,301.08 470.24,301.04 466.00,296.00 Z
           M 451.00,327.00
           C 451.00,327.00 427.00,313.50 427.00,313.50
             420.21,309.09 408.44,301.13 401.00,299.00
             399.31,301.56 396.45,305.09 395.82,308.00
             395.18,310.96 396.51,319.62 396.92,323.00
             396.92,323.00 396.92,342.00 396.92,342.00
             397.00,346.20 396.44,355.46 398.31,358.89
             400.72,363.32 406.42,364.17 411.00,363.91
             428.13,362.92 436.92,352.82 444.85,339.00
             447.38,334.60 449.44,331.94 451.00,327.00 Z
           M 585.00,307.00
           C 584.57,305.77 584.62,304.95 583.41,303.81
             581.47,302.54 570.48,302.60 568.22,303.81
             566.32,304.43 566.02,305.41 565.00,307.00
             565.00,307.00 585.00,307.00 585.00,307.00 Z
           M 495.00,309.00
           C 494.73,307.47 494.79,306.11 493.40,305.02
             491.17,303.26 479.66,303.54 477.60,305.60
             476.10,307.10 476.16,309.06 476.00,311.00
             476.00,311.00 495.00,309.00 495.00,309.00 Z
           M 249.00,307.00
           C 249.00,307.00 234.00,310.38 234.00,310.38
             234.00,310.38 212.00,314.51 212.00,314.51
             207.18,315.72 201.40,317.85 199.82,323.04
             198.37,327.79 201.49,338.26 203.14,343.00
             207.39,355.15 208.00,355.03 208.00,368.00
             217.37,365.64 220.71,366.04 230.00,366.00
             230.00,366.00 244.00,365.00 244.00,365.00
             247.89,364.91 256.71,364.18 258.96,360.58
             261.45,356.61 255.92,349.01 254.68,345.00
             253.19,340.15 254.58,332.24 253.79,327.00
             252.68,319.66 249.11,319.45 249.00,307.00 Z
           M 472.00,311.00
           C 472.00,311.00 464.00,311.00 464.00,311.00
             461.19,318.66 456.08,325.19 451.69,332.00
             441.89,347.22 438.15,358.88 419.00,364.97
             415.19,366.18 411.01,367.34 407.00,366.67
             403.71,366.12 400.92,364.50 398.00,363.00
             398.00,363.00 400.95,389.00 400.95,389.00
             401.35,392.31 402.68,396.76 400.95,399.72
             399.03,402.60 395.03,402.95 392.00,403.65
             392.00,403.65 369.00,409.88 369.00,409.88
             356.12,413.91 353.15,413.06 340.00,413.00
             340.00,413.00 320.00,412.17 320.00,412.17
             317.22,412.43 309.18,413.20 307.00,413.96
             301.48,415.89 298.29,419.32 292.00,420.77
             292.00,420.77 257.00,420.77 257.00,420.77
             257.00,420.77 257.00,439.00 257.00,439.00
             257.00,439.00 279.00,427.57 279.00,427.57
             295.37,420.50 327.60,413.77 345.00,418.00
             337.86,421.31 328.77,419.91 321.00,420.00
             307.43,420.16 285.29,426.88 273.00,432.78
             269.69,434.37 259.95,439.53 258.17,442.38
             256.62,444.86 257.00,450.04 257.00,453.00
             257.00,453.00 292.00,438.67 292.00,438.67
             305.07,434.37 325.22,430.64 339.00,429.16
             339.00,429.16 361.00,427.00 361.00,427.00
             361.00,427.00 389.00,426.00 389.00,426.00
             397.72,425.88 400.13,421.89 406.90,417.00
             406.52,414.86 405.56,412.38 406.90,410.34
             408.61,407.40 415.91,403.29 419.00,412.00
             424.79,412.00 431.50,411.55 437.00,413.41
             439.75,414.33 443.88,417.27 446.67,415.72
             448.97,414.45 448.36,412.00 447.63,410.00
             446.41,406.63 444.81,404.96 444.21,401.00
             443.47,396.15 444.88,391.73 443.00,387.00
             442.64,390.51 441.01,398.08 437.73,399.94
             435.29,401.32 431.55,399.85 429.00,399.23
             421.74,397.47 413.87,394.35 410.58,387.00
             408.29,381.87 411.56,375.87 417.01,374.89
             420.28,374.31 423.12,375.73 426.00,377.00
             426.69,368.41 434.01,364.42 439.67,369.43
             444.35,373.57 443.06,377.17 445.00,382.00
             445.66,374.12 448.10,366.60 450.12,359.00
             452.99,348.15 455.53,338.03 460.78,328.00
             460.78,328.00 472.00,311.00 472.00,311.00 Z
           M 556.00,311.16
           C 556.00,311.16 538.09,311.16 538.09,311.16
             538.09,311.16 530.20,316.38 530.20,316.38
             530.20,316.38 523.94,311.16 523.94,311.16
             523.94,311.16 504.00,311.16 504.00,311.16
             512.36,320.84 524.35,320.41 536.00,319.16
             544.85,318.22 549.81,318.40 556.00,311.16 Z
           M 602.00,311.00
           C 602.00,311.00 595.00,311.00 595.00,311.00
             595.00,311.00 602.00,327.00 602.00,327.00
             602.00,327.00 602.00,311.00 602.00,311.00 Z
           M 648.00,329.00
           C 650.65,323.89 663.51,315.13 669.00,313.00
             669.00,313.00 671.00,339.00 671.00,339.00
             671.00,339.00 648.00,329.00 648.00,329.00 Z
           M 667.00,317.00
           C 667.00,317.00 652.00,328.00 652.00,328.00
             652.00,328.00 669.00,336.00 669.00,336.00
             669.00,336.00 667.00,317.00 667.00,317.00 Z
           M 224.00,317.00
           C 224.00,317.00 233.53,328.58 233.53,328.58
             233.53,328.58 247.00,330.00 247.00,330.00
             247.00,330.00 240.58,341.00 240.58,341.00
             240.58,341.00 247.00,358.00 247.00,358.00
             238.10,356.60 233.48,351.85 230.58,352.58
             225.26,353.91 223.35,362.05 215.00,361.00
             215.63,357.54 218.23,346.91 216.89,344.18
             214.59,339.49 209.34,340.59 207.00,333.00
             209.82,332.31 216.16,331.96 217.78,330.98
             221.43,328.78 222.27,321.13 224.00,317.00 Z
           M 394.00,329.00
           C 394.00,329.00 357.00,334.00 357.00,334.00
             357.00,334.00 324.00,336.13 324.00,336.13
             324.00,336.13 308.00,338.94 308.00,338.94
             308.00,338.94 299.00,338.94 299.00,338.94
             299.00,338.94 288.00,340.00 288.00,340.00
             288.00,340.00 257.00,343.00 257.00,343.00
             257.00,343.00 263.00,361.00 263.00,361.00
             273.81,358.36 297.67,356.02 309.00,356.00
             319.19,355.98 320.31,354.42 329.00,353.29
             329.00,353.29 356.00,352.00 356.00,352.00
             356.00,352.00 369.00,351.00 369.00,351.00
             374.77,350.94 390.00,350.42 395.00,349.00
             395.00,349.00 394.00,329.00 394.00,329.00 Z
           M 572.13,330.71
           C 566.59,334.34 571.39,338.53 574.71,337.21
             577.23,336.20 578.59,330.45 572.13,330.71 Z
           M 495.00,332.00
           C 487.26,330.71 484.21,332.75 486.00,341.00
             476.16,343.43 476.73,341.68 479.00,353.00
             479.00,353.00 485.00,353.00 485.00,353.00
             485.20,357.11 485.51,362.01 491.00,361.75
             492.29,361.69 493.46,361.33 494.40,360.40
             496.31,358.53 495.64,355.67 497.60,353.74
             499.95,351.42 504.18,352.69 505.24,347.95
             506.82,340.92 498.47,342.03 496.60,340.32
             494.67,338.55 495.01,334.43 495.00,332.00 Z
           M 528.14,331.61
           C 521.90,335.91 526.70,343.26 531.86,341.36
             535.52,340.01 537.84,329.96 528.14,331.61 Z
           M 558.30,339.66
           C 553.94,343.22 557.44,347.65 560.70,346.34
             563.23,345.34 564.48,339.15 558.30,339.66 Z
           M 584.21,339.66
           C 578.95,343.46 583.64,347.55 586.70,346.34
             589.18,345.37 590.57,339.16 584.21,339.66 Z
           M 629.00,339.00
           C 627.91,341.75 627.90,344.05 628.02,347.00
             628.31,354.14 631.40,353.97 633.75,360.00
             637.24,368.92 637.86,388.96 627.82,393.91
             625.41,395.10 622.62,394.99 620.00,395.00
             620.00,395.00 615.00,395.00 615.00,395.00
             613.20,401.10 608.71,406.94 602.00,407.91
             592.50,409.29 582.94,399.39 576.00,394.41
             573.24,392.44 571.92,392.27 569.00,391.00
             559.54,386.87 557.78,385.02 547.00,385.00
             547.00,385.00 534.00,385.00 534.00,385.00
             518.28,385.02 488.59,397.83 474.00,404.92
             474.00,404.92 458.00,413.08 458.00,413.08
             455.79,414.25 452.91,415.47 452.39,418.21
             451.69,421.88 455.11,427.07 457.00,430.00
             457.00,430.00 465.00,427.00 465.00,427.00
             465.00,427.00 459.00,432.00 459.00,432.00
             459.00,432.00 467.00,445.00 467.00,445.00
             467.00,445.00 484.00,437.00 484.00,437.00
             484.73,428.01 486.58,406.89 494.04,401.47
             498.62,398.23 507.64,400.63 513.00,401.47
             513.00,401.47 543.00,405.71 543.00,405.71
             543.00,405.71 559.00,407.46 559.00,407.46
             559.00,407.46 586.00,411.72 586.00,411.72
             595.03,413.23 601.60,414.84 599.00,426.00
             608.23,426.00 618.77,424.82 626.58,419.45
             634.38,414.07 638.80,404.83 641.42,396.00
             647.96,373.96 644.72,356.28 629.00,339.00 Z
           M 448.00,346.00
           C 448.00,346.00 450.00,346.00 450.00,346.00
             449.64,353.33 446.86,359.67 440.00,363.00
             440.00,363.00 448.00,346.00 448.00,346.00 Z
           M 630.00,348.00
           C 630.00,348.00 633.00,348.00 633.00,348.00
             633.00,348.00 636.00,355.00 636.00,355.00
             631.76,353.59 631.16,352.20 630.00,348.00 Z
           M 571.43,350.59
           C 567.03,354.48 571.75,358.47 574.70,356.87
             577.30,355.46 578.10,349.52 571.43,350.59 Z
           M 629.00,356.00
           C 629.00,356.00 628.00,364.00 628.00,364.00
             628.00,364.00 629.00,391.00 629.00,391.00
             634.63,380.13 636.00,366.64 629.00,356.00 Z
           M 542.00,363.00
           C 541.42,361.41 541.46,360.61 539.71,359.74
             537.51,358.64 523.49,358.64 521.29,359.74
             519.54,360.61 519.58,361.41 519.00,363.00
             526.96,364.43 534.04,364.43 542.00,363.00 Z
           M 638.00,362.00
           C 638.00,362.00 640.00,362.00 640.00,362.00
             640.75,365.52 641.11,366.01 639.00,369.00
             639.00,369.00 638.00,362.00 638.00,362.00 Z
           M 407.00,388.00
           C 400.59,385.37 402.67,370.54 412.00,370.00
             405.98,378.79 405.61,377.40 407.00,388.00 Z
           M 398.00,386.00
           C 397.97,382.92 397.71,373.95 395.26,371.99
             392.81,370.03 382.29,372.22 379.00,372.75
             360.65,375.75 354.89,379.03 335.00,379.00
             335.00,379.00 318.00,378.00 318.00,378.00
             318.00,378.00 274.00,382.83 274.00,382.83
             274.00,382.83 237.00,384.00 237.00,384.00
             231.57,384.07 217.28,386.27 213.95,390.64
             212.53,392.50 212.33,395.75 212.53,398.00
             212.53,398.00 214.00,407.00 214.00,407.00
             214.00,407.00 242.00,399.28 242.00,399.28
             242.00,399.28 283.00,396.00 283.00,396.00
             283.00,396.00 300.00,395.00 300.00,395.00
             300.00,395.00 341.00,393.00 341.00,393.00
             341.00,393.00 356.00,392.00 356.00,392.00
             356.00,392.00 361.00,392.00 361.00,392.00
             361.00,392.00 398.00,386.00 398.00,386.00 Z
           M 570.00,388.00
           C 567.65,384.29 564.99,380.28 561.00,378.16
             557.76,376.44 552.64,376.05 549.00,376.00
             549.00,376.00 535.00,376.00 535.00,376.00
             535.00,376.00 518.00,377.00 518.00,377.00
             512.69,377.01 507.72,377.13 503.00,380.00
             497.72,383.22 494.61,388.58 492.00,394.00
             505.62,390.89 516.91,382.09 536.00,382.23
             540.27,381.98 548.11,381.77 552.00,382.23
             561.35,384.12 563.88,386.56 570.00,388.00 Z
           M 638.00,379.00
           C 638.00,379.00 640.00,379.00 640.00,379.00
             640.27,382.81 640.29,383.85 637.00,386.00
             637.00,386.00 638.00,379.00 638.00,379.00 Z
           M 492.00,394.00
           C 492.00,394.00 491.00,394.00 491.00,394.00
             491.00,394.00 492.00,395.00 492.00,395.00
             492.00,395.00 492.00,394.00 492.00,394.00 Z
           M 631.00,402.00
           C 631.05,397.43 631.99,396.12 636.00,394.00
             635.06,397.91 634.49,399.80 631.00,402.00 Z
           M 409.00,395.00
           C 412.90,402.54 400.71,412.65 395.00,416.07
             384.53,422.34 359.33,425.94 347.00,426.00
             347.00,426.00 330.00,425.00 330.00,425.00
             330.00,425.00 330.00,423.00 330.00,423.00
             352.14,423.00 383.24,424.01 400.53,407.87
             404.76,403.93 406.21,399.90 409.00,395.00 Z
           M 542.00,397.00
           C 542.00,397.00 551.00,397.00 551.00,397.00
             551.00,397.00 551.00,400.00 551.00,400.00
             547.09,399.91 544.55,400.29 542.00,397.00 Z
           M 419.00,398.00
           C 421.23,400.55 422.43,404.10 426.02,405.16
             430.06,406.35 440.28,400.13 444.11,409.09
             444.65,410.36 444.78,411.67 445.00,413.00
             440.12,411.13 441.04,407.99 436.96,407.06
             434.21,406.44 430.98,408.39 428.00,408.49
             421.57,408.70 417.59,404.25 419.00,398.00 Z
           M 521.00,400.00
           C 521.00,400.00 531.00,398.00 531.00,398.00
             528.43,401.80 524.79,402.67 521.00,400.00 Z
           M 563.00,399.00
           C 566.99,399.92 569.43,399.97 571.00,404.00
             566.83,403.14 564.53,403.26 563.00,399.00 Z
           M 584.00,462.00
           C 584.00,462.00 590.19,434.00 590.19,434.00
             591.02,430.17 592.80,424.66 590.19,421.23
             587.30,417.23 575.91,416.67 571.00,416.00
             571.00,416.00 519.00,408.83 519.00,408.83
             513.81,408.25 502.47,404.64 498.22,407.74
             492.99,411.56 491.85,427.55 491.00,434.00
             491.00,434.00 539.00,413.00 539.00,413.00
             536.09,419.14 529.07,423.69 524.00,428.15
             524.00,428.15 499.00,449.73 499.00,449.73
             499.00,449.73 488.00,459.00 488.00,459.00
             488.00,459.00 508.00,451.53 508.00,451.53
             508.00,451.53 556.00,433.58 556.00,433.58
             556.00,433.58 586.00,423.00 586.00,423.00
             586.00,423.00 539.00,463.83 539.00,463.83
             539.00,463.83 524.00,477.00 524.00,477.00
             524.00,477.00 584.00,462.00 584.00,462.00 Z
           M 580.00,406.00
           C 584.70,405.33 587.45,405.75 590.00,410.00
             585.27,409.56 583.64,409.14 580.00,406.00 Z
           M 655.00,407.00
           C 659.09,410.08 655.83,415.08 654.19,419.00
             650.85,426.99 640.71,443.69 631.00,443.00
             631.00,443.00 639.83,434.83 639.83,434.83
             647.33,427.30 652.64,417.33 655.00,407.00 Z
           M 617.00,411.00
           C 617.00,411.00 625.00,408.00 625.00,408.00
             622.93,411.43 620.79,413.19 617.00,411.00 Z
           M 601.00,413.00
           C 604.95,413.05 606.66,412.50 609.00,416.00
             609.00,416.00 601.00,416.00 601.00,416.00
             601.00,416.00 601.00,413.00 601.00,413.00 Z
           M 479.00,420.00
           C 479.00,420.00 484.00,416.00 484.00,416.00
             482.80,419.33 482.39,419.22 479.00,420.00 Z
           M 421.00,418.30
           C 411.65,420.07 402.68,425.12 398.40,434.00
             396.19,438.60 395.89,443.00 396.01,448.00
             396.43,465.06 409.90,473.81 426.00,471.71
             432.71,470.84 438.11,469.08 442.81,463.96
             452.89,453.00 453.57,430.09 439.96,421.61
             434.45,418.18 427.30,417.67 421.00,418.30 Z
           M 450.00,418.00
           C 450.00,418.00 447.00,419.00 447.00,419.00
             447.00,419.00 451.00,423.00 451.00,423.00
             451.00,423.00 450.00,418.00 450.00,418.00 Z
           M 255.00,421.00
           C 255.00,421.00 233.00,426.00 233.00,426.00
             233.00,426.00 233.00,457.00 233.00,457.00
             237.96,454.57 252.49,444.74 254.40,439.91
             255.39,437.41 255.00,424.55 255.00,421.00 Z
           M 414.00,421.00
           C 417.67,423.38 418.21,425.78 418.00,430.00
             414.57,427.64 414.56,424.92 414.00,421.00 Z
           M 469.00,426.00
           C 469.00,426.00 474.00,422.00 474.00,422.00
             474.00,422.00 469.00,426.00 469.00,426.00 Z
           M 624.00,424.00
           C 624.00,424.00 623.00,424.00 623.00,424.00
             623.00,424.00 624.00,425.00 624.00,425.00
             624.00,425.00 624.00,424.00 624.00,424.00 Z
           M 626.00,424.00
           C 626.00,424.00 625.00,424.00 625.00,424.00
             625.00,424.00 626.00,425.00 626.00,425.00
             626.00,425.00 626.00,424.00 626.00,424.00 Z
           M 621.00,426.00
           C 621.00,426.00 605.00,428.00 605.00,428.00
             605.00,428.00 605.00,448.00 605.00,448.00
             611.77,446.73 616.64,443.14 622.00,439.00
             619.30,434.17 619.73,431.24 621.00,426.00 Z
           M 234.00,449.00
           C 234.00,430.27 231.95,426.59 242.00,426.00
             242.00,431.27 242.78,443.68 238.57,447.26
             237.10,448.51 235.77,448.61 234.00,449.00 Z
           M 394.00,428.00
           C 394.00,428.00 374.00,429.00 374.00,429.00
             374.00,429.00 364.00,429.91 364.00,429.91
             343.18,431.33 322.32,432.98 302.00,438.29
             283.81,443.04 271.69,448.76 255.00,456.89
             246.08,461.24 235.65,467.90 226.00,469.41
             220.75,470.23 215.23,469.77 212.01,464.89
             206.52,456.58 216.67,448.04 223.00,444.12
             224.60,443.13 228.00,441.67 229.01,440.31
             230.11,438.81 229.94,436.75 230.00,435.00
             230.00,435.00 225.00,437.00 225.00,437.00
             225.00,437.00 227.00,440.00 227.00,440.00
             227.00,440.00 221.00,442.00 221.00,442.00
             221.00,442.00 221.00,440.00 221.00,440.00
             221.00,440.00 215.00,442.00 215.00,442.00
             215.00,442.00 215.00,443.00 215.00,443.00
             215.00,443.00 217.00,445.00 217.00,445.00
             217.00,445.00 213.00,448.00 213.00,448.00
             213.00,448.00 212.00,445.00 212.00,445.00
             196.60,452.95 183.51,481.95 201.01,494.09
             206.41,497.82 212.56,498.92 219.00,499.00
             235.50,499.19 247.32,498.26 261.00,487.47
             271.05,479.55 266.58,470.66 268.31,464.04
             269.35,460.08 277.82,454.06 281.89,454.35
             283.61,454.48 283.86,455.12 285.00,456.00
             285.00,456.00 294.00,452.00 294.00,452.00
             294.00,452.00 288.00,457.00 288.00,457.00
             288.00,457.00 293.00,469.00 293.00,469.00
             302.22,464.02 301.00,463.26 301.00,451.00
             301.00,451.00 295.00,453.00 295.00,453.00
             295.00,453.00 301.00,450.00 301.00,450.00
             301.50,448.44 301.44,447.91 302.59,446.51
             304.63,444.05 312.74,438.96 316.00,439.66
             318.59,440.21 321.99,444.10 324.00,446.00
             326.28,442.49 328.05,442.57 332.00,442.00
             332.00,442.00 324.00,446.00 324.00,446.00
             324.00,446.00 326.00,458.00 326.00,458.00
             326.00,458.00 358.00,455.08 358.00,455.08
             358.00,455.08 371.00,455.08 371.00,455.08
             371.00,455.08 391.00,457.00 391.00,457.00
             391.00,457.00 390.00,442.00 390.00,442.00
             390.00,442.00 382.00,441.00 382.00,441.00
             384.73,438.08 386.31,439.29 390.00,440.00
             390.00,440.00 394.00,428.00 394.00,428.00 Z
           M 602.00,429.00
           C 602.00,429.00 598.00,429.00 598.00,429.00
             598.00,429.00 584.41,490.00 584.41,490.00
             584.41,490.00 586.73,506.00 586.73,506.00
             586.73,506.00 592.00,542.00 592.00,542.00
             592.00,542.00 603.00,542.00 603.00,542.00
             603.00,542.00 603.00,514.00 603.00,514.00
             603.00,514.00 602.00,497.00 602.00,497.00
             602.00,497.00 602.00,452.00 602.00,452.00
             602.00,452.00 599.00,453.00 599.00,453.00
             599.00,453.00 601.49,448.71 601.49,448.71
             601.49,448.71 602.00,429.00 602.00,429.00 Z
           M 185.14,466.00
           C 180.36,462.72 183.14,455.27 185.14,451.00
             189.79,441.97 198.09,436.59 207.00,432.54
             210.93,430.76 214.05,428.59 218.00,431.00
             218.00,431.00 206.00,436.27 206.00,436.27
             193.81,442.37 185.31,452.02 185.14,466.00 Z
           M 456.90,432.00
           C 456.90,432.00 456.90,441.00 456.90,441.00
             456.90,441.00 455.00,453.00 455.00,453.00
             455.00,453.00 459.99,450.95 459.99,450.95
             468.82,446.20 463.92,443.06 456.90,432.00 Z
           M 408.00,435.00
           C 418.66,433.97 436.61,447.71 441.00,457.00
             436.60,456.55 424.93,453.17 421.28,450.87
             416.86,448.08 410.47,439.68 408.00,435.00 Z
           M 440.00,436.00
           C 440.00,436.00 448.00,434.00 448.00,434.00
             446.55,438.03 444.86,437.82 441.00,439.00
             441.00,439.00 440.00,436.00 440.00,436.00 Z
           M 625.00,435.00
           C 625.00,435.00 624.00,435.00 624.00,435.00
             624.00,435.00 625.00,436.00 625.00,436.00
             625.00,436.00 625.00,435.00 625.00,435.00 Z
           M 624.00,436.00
           C 624.00,436.00 623.00,436.00 623.00,436.00
             623.00,436.00 624.00,437.00 624.00,437.00
             624.00,437.00 624.00,436.00 624.00,436.00 Z
           M 222.00,439.00
           C 222.00,439.00 221.00,439.00 221.00,439.00
             221.00,439.00 222.00,440.00 222.00,440.00
             222.00,440.00 222.00,439.00 222.00,439.00 Z
           M 626.00,439.00
           C 626.00,439.00 614.00,447.12 614.00,447.12
             610.15,449.36 606.66,449.69 605.00,454.00
             605.00,454.00 625.00,444.00 625.00,444.00
             625.00,444.00 624.00,447.00 624.00,447.00
             626.61,444.66 625.99,442.32 626.00,439.00 Z
           M 363.00,439.00
           C 363.00,439.00 368.00,439.00 368.00,439.00
             368.00,439.00 368.00,442.00 368.00,442.00
             368.00,442.00 363.00,439.00 363.00,439.00 Z
           M 372.00,439.00
           C 372.00,439.00 378.00,439.00 378.00,439.00
             378.00,439.00 378.00,441.00 378.00,441.00
             378.00,441.00 372.00,441.00 372.00,441.00
             372.00,441.00 372.00,439.00 372.00,439.00 Z
           M 483.00,440.00
           C 479.06,441.50 471.12,444.91 469.82,449.09
             469.82,449.09 469.82,463.00 469.82,463.00
             469.82,463.00 476.00,459.00 476.00,459.00
             476.00,459.00 469.51,469.00 469.51,469.00
             467.53,473.58 469.08,478.32 462.98,482.26
             459.67,484.40 455.76,483.98 452.00,484.00
             445.98,484.03 443.78,484.68 438.00,485.94
             430.46,487.57 429.93,491.67 425.83,490.65
             419.80,489.16 419.20,483.14 415.89,479.29
             413.59,476.61 408.37,475.76 405.00,475.00
             405.00,475.00 404.00,476.00 404.00,476.00
             404.00,476.00 417.26,488.01 417.26,488.01
             417.26,488.01 420.00,502.00 420.00,502.00
             424.53,502.66 422.91,505.52 424.08,509.00
             425.00,511.75 427.67,515.07 430.01,516.79
             433.79,519.57 435.75,516.24 437.80,517.92
             439.19,519.05 438.97,521.42 439.00,523.00
             439.00,523.00 462.28,496.00 462.28,496.00
             462.28,496.00 478.07,476.00 478.07,476.00
             478.07,476.00 480.08,465.00 480.08,465.00
             480.08,465.00 483.00,440.00 483.00,440.00 Z
           M 345.00,443.00
           C 347.27,439.62 348.80,439.69 352.00,442.00
             352.00,442.00 345.00,443.00 345.00,443.00 Z
           M 355.00,440.00
           C 355.00,440.00 360.00,440.00 360.00,440.00
             360.00,440.00 360.00,442.00 360.00,442.00
             360.00,442.00 355.00,442.00 355.00,442.00
             355.00,442.00 355.00,440.00 355.00,440.00 Z
           M 335.00,444.00
           C 336.40,440.63 337.56,441.12 341.00,441.00
             341.00,441.00 335.00,444.00 335.00,444.00 Z
           M 215.00,443.00
           C 215.00,443.00 214.00,443.00 214.00,443.00
             214.00,443.00 215.00,444.00 215.00,444.00
             215.00,444.00 215.00,443.00 215.00,443.00 Z
           M 213.00,444.00
           C 213.00,444.00 212.00,444.00 212.00,444.00
             212.00,444.00 213.00,445.00 213.00,445.00
             213.00,445.00 213.00,444.00 213.00,444.00 Z
           M 230.00,444.00
           C 226.16,444.78 224.25,445.65 221.00,447.90
             218.94,449.33 216.99,450.97 215.51,453.02
             214.40,454.56 213.68,456.12 213.36,458.00
             211.32,469.69 227.05,467.68 229.01,465.26
             229.98,464.06 229.89,462.43 230.00,461.00
             224.05,459.73 222.49,458.05 222.00,452.00
             222.00,452.00 224.00,452.00 224.00,452.00
             224.77,456.67 225.43,457.61 230.00,459.00
             230.00,459.00 230.00,444.00 230.00,444.00 Z
           M 255.00,445.00
           C 255.00,445.00 241.00,454.62 241.00,454.62
             241.00,454.62 234.02,460.37 234.02,460.37
             234.02,460.37 233.00,465.00 233.00,465.00
             236.91,463.68 252.05,456.64 253.98,453.61
             255.29,451.54 255.00,447.45 255.00,445.00 Z
           M 624.00,447.00
           C 624.00,447.00 623.00,447.00 623.00,447.00
             623.00,447.00 624.00,448.00 624.00,448.00
             624.00,448.00 624.00,447.00 624.00,447.00 Z
           M 622.00,448.00
           C 622.00,448.00 621.00,448.00 621.00,448.00
             621.00,448.00 622.00,449.00 622.00,449.00
             622.00,449.00 622.00,448.00 622.00,448.00 Z
           M 209.00,448.00
           C 210.45,451.24 209.45,451.71 207.00,454.00
             207.00,454.00 209.00,448.00 209.00,448.00 Z
           M 621.00,449.00
           C 621.00,449.00 620.00,449.00 620.00,449.00
             620.00,449.00 621.00,450.00 621.00,450.00
             621.00,450.00 621.00,449.00 621.00,449.00 Z
           M 467.00,450.00
           C 464.52,450.95 456.41,455.03 454.63,456.69
             451.85,459.30 450.23,465.23 442.96,470.96
             435.72,476.67 426.96,477.80 418.00,478.00
             419.69,484.27 423.98,493.97 431.00,486.00
             427.05,485.43 425.28,485.51 423.00,482.00
             434.08,483.98 430.18,482.43 439.00,481.21
             442.54,480.71 445.27,481.39 449.00,480.15
             451.83,479.21 455.54,476.71 458.00,474.96
             467.75,468.01 470.30,461.60 467.00,450.00 Z
           M 618.00,451.00
           C 618.00,451.00 617.00,451.00 617.00,451.00
             617.00,451.00 618.00,452.00 618.00,452.00
             618.00,452.00 618.00,451.00 618.00,451.00 Z
           M 305.00,452.00
           C 305.00,452.00 304.00,468.00 304.00,468.00
             304.00,468.00 305.00,505.00 305.00,505.00
             306.99,504.88 309.61,504.99 311.01,503.26
             312.50,501.42 312.00,493.60 312.00,491.00
             312.00,491.00 311.04,479.00 311.04,479.00
             311.04,479.00 311.04,466.00 311.04,466.00
             310.98,458.07 310.63,457.83 305.00,452.00 Z
           M 616.00,452.00
           C 616.00,452.00 615.00,452.00 615.00,452.00
             615.00,452.00 616.00,453.00 616.00,453.00
             616.00,453.00 616.00,452.00 616.00,452.00 Z
           M 623.00,452.00
           C 623.00,452.00 605.00,460.00 605.00,460.00
             605.00,460.00 605.00,520.00 605.00,520.00
             605.02,533.79 610.54,544.76 598.00,545.00
             598.00,545.00 593.00,545.00 593.00,545.00
             593.00,545.00 594.00,555.00 594.00,555.00
             596.19,541.93 609.78,555.68 611.89,545.94
             611.89,545.94 613.17,529.00 613.17,529.00
             613.17,529.00 616.91,486.00 616.91,486.00
             616.91,486.00 619.58,458.04 619.58,458.04
             619.58,458.04 623.00,452.00 623.00,452.00 Z
           M 324.00,453.00
           C 324.00,453.00 314.99,457.55 314.99,457.55
             314.99,457.55 314.00,470.00 314.00,470.00
             314.00,470.00 314.00,486.00 314.00,486.00
             314.00,486.00 315.00,503.00 315.00,503.00
             315.00,503.00 324.00,501.00 324.00,501.00
             324.00,501.00 324.00,453.00 324.00,453.00 Z
           M 399.00,455.00
           C 399.00,455.00 408.00,452.00 408.00,452.00
             405.75,455.69 402.96,457.54 399.00,455.00 Z
           M 203.00,457.00
           C 203.00,457.00 205.00,457.00 205.00,457.00
             205.00,457.00 204.00,465.00 204.00,465.00
             200.35,462.48 201.51,460.69 203.00,457.00 Z
           M 404.00,473.00
           C 395.03,466.19 394.88,462.20 391.62,460.53
             389.26,459.33 376.14,458.04 373.00,458.00
             353.50,457.78 345.49,457.45 326.00,461.00
             326.00,461.00 327.00,474.00 327.00,474.00
             327.00,474.00 327.00,500.00 327.00,500.00
             327.00,500.00 343.00,497.04 343.00,497.04
             343.00,497.04 361.00,498.00 361.00,498.00
             361.95,490.79 362.09,490.44 362.00,483.00
             361.94,478.75 359.78,472.01 361.21,469.04
             363.76,463.75 369.98,463.56 375.00,464.46
             386.44,466.52 393.11,475.32 404.00,473.00 Z
           M 430.00,461.00
           C 430.00,461.00 433.00,461.00 433.00,461.00
             433.00,461.00 434.00,469.00 434.00,469.00
             431.04,465.99 430.78,465.10 430.00,461.00 Z
           M 258.00,471.00
           C 259.52,466.50 261.56,465.91 266.00,465.00
             263.79,468.83 262.05,469.50 258.00,471.00 Z
           M 271.00,466.00
           C 271.00,466.00 270.00,466.00 270.00,466.00
             270.00,466.00 271.00,467.00 271.00,467.00
             271.00,467.00 271.00,466.00 271.00,466.00 Z
           M 391.00,475.00
           C 386.71,470.10 370.42,462.51 364.57,468.01
             360.31,472.01 366.00,481.22 373.00,482.54
             377.85,483.46 386.35,477.29 391.00,475.00 Z
           M 272.00,467.00
           C 268.84,472.43 269.96,491.88 270.00,499.00
             270.01,500.78 269.83,503.82 270.99,505.26
             272.51,507.14 275.83,506.94 278.00,507.00
             278.00,507.00 278.00,485.00 278.00,485.00
             278.00,485.00 277.40,474.00 277.40,474.00
             277.40,474.00 272.00,467.00 272.00,467.00 Z
           M 290.00,468.00
           C 286.82,468.93 282.85,470.32 280.91,473.33
             279.02,476.62 280.26,485.18 280.91,489.00
             280.91,489.00 280.91,508.00 280.91,508.00
             280.91,508.00 291.00,508.00 291.00,508.00
             291.00,508.00 291.00,488.00 291.00,488.00
             291.00,488.00 290.00,468.00 290.00,468.00 Z
           M 301.00,468.00
           C 301.00,468.00 294.02,472.33 294.02,472.33
             294.02,472.33 293.00,485.00 293.00,485.00
             293.00,485.00 294.00,508.00 294.00,508.00
             294.00,508.00 300.98,505.41 300.98,505.41
             300.98,505.41 302.00,498.00 302.00,498.00
             302.00,498.00 301.00,468.00 301.00,468.00 Z
           M 596.00,469.00
           C 596.00,469.00 598.00,469.00 598.00,469.00
             598.00,469.00 590.34,497.00 590.34,497.00
             590.34,497.00 597.00,536.00 597.00,536.00
             593.01,533.22 592.36,523.77 591.40,519.00
             590.21,513.09 587.26,501.59 587.46,496.00
             587.63,491.04 593.78,474.06 596.00,469.00 Z
           M 467.00,471.00
           C 467.00,471.00 452.00,482.00 452.00,482.00
             461.57,482.00 466.36,482.47 467.00,471.00 Z
           M 202.00,471.00
           C 202.00,471.00 204.00,471.00 204.00,471.00
             204.00,471.00 207.00,479.00 207.00,479.00
             207.00,479.00 206.00,480.00 206.00,480.00
             202.19,476.74 202.17,475.89 202.00,471.00 Z
           M 250.00,475.00
           C 250.00,475.00 256.00,471.00 256.00,471.00
             254.67,474.69 253.75,474.55 250.00,475.00 Z
           M 330.00,474.00
           C 340.08,470.23 342.63,471.00 353.00,471.00
             353.00,471.00 353.00,473.00 353.00,473.00
             353.00,473.00 332.22,475.17 332.22,475.17
             332.22,475.17 330.00,474.00 330.00,474.00 Z
           M 240.00,480.00
           C 241.66,475.74 244.81,475.65 249.00,475.00
             246.59,479.06 244.45,479.30 240.00,480.00 Z
           M 396.00,476.00
           C 396.00,476.00 395.00,476.00 395.00,476.00
             395.00,476.00 396.00,477.00 396.00,477.00
             396.00,477.00 396.00,476.00 396.00,476.00 Z
           M 183.00,476.00
           C 183.00,476.00 186.00,476.00 186.00,476.00
             186.62,483.55 188.33,488.75 192.89,494.91
             196.70,500.07 199.49,500.73 202.00,507.00
             190.57,501.69 183.57,488.25 183.00,476.00 Z
           M 402.00,477.00
           C 402.00,477.00 385.00,481.00 385.00,481.00
             387.98,487.40 390.50,488.11 391.57,492.01
             392.62,495.82 390.97,507.96 395.85,513.64
             401.75,520.51 412.51,511.74 412.90,507.00
             413.08,504.75 409.54,499.49 408.44,497.00
             405.78,491.02 403.14,483.43 402.00,477.00 Z
           M 591.00,552.00
           C 591.00,552.00 584.42,509.00 584.42,509.00
             583.95,505.63 582.97,494.88 581.02,492.60
             579.43,490.75 572.54,490.33 570.00,490.05
             570.00,490.05 544.00,486.57 544.00,486.57
             544.00,486.57 485.00,478.06 485.00,478.06
             478.44,477.37 475.91,483.51 471.95,488.00
             465.68,495.10 447.15,516.86 443.00,524.00
             453.86,526.60 455.33,518.76 458.00,527.00
             463.38,527.36 462.66,527.94 467.00,528.76
             475.86,530.42 481.00,531.40 489.00,536.21
             489.00,536.21 503.09,546.69 503.09,546.69
             503.09,546.69 522.00,548.28 522.00,548.28
             522.00,548.28 555.00,551.09 555.00,551.09
             555.00,551.09 567.00,552.00 567.00,552.00
             567.00,552.00 591.00,552.00 591.00,552.00 Z
           M 224.00,483.00
           C 224.00,483.00 233.00,480.00 233.00,480.00
             233.00,480.00 233.00,483.00 233.00,483.00
             233.00,483.00 224.00,483.00 224.00,483.00 Z
           M 211.00,481.00
           C 211.00,481.00 219.00,482.00 219.00,482.00
             216.32,485.95 212.70,485.35 211.00,481.00 Z
           M 384.00,485.00
           C 382.01,482.43 381.75,482.11 379.00,484.00
             379.00,484.00 384.00,485.00 384.00,485.00 Z
           M 331.00,487.00
           C 336.70,478.22 347.13,484.29 355.00,485.15
             351.45,489.92 346.85,485.59 342.00,485.15
             342.00,485.15 331.00,487.00 331.00,487.00 Z
           M 267.00,486.00
           C 261.51,489.47 257.37,491.80 257.22,498.96
             257.19,500.51 257.30,501.78 258.57,502.84
             260.20,504.20 264.86,504.71 267.00,505.00
             267.00,505.00 267.00,486.00 267.00,486.00 Z
           M 482.04,485.86
           C 487.06,484.57 503.21,487.86 509.00,489.12
             509.00,489.12 523.00,491.28 523.00,491.28
             523.00,491.28 551.00,496.25 551.00,496.25
             555.31,496.97 571.89,499.11 574.52,501.14
             577.53,503.47 576.89,508.61 577.04,512.00
             577.53,522.97 582.73,529.50 573.00,529.12
             573.00,529.12 545.00,525.28 545.00,525.28
             545.00,525.28 493.00,518.13 493.00,518.13
             493.00,518.13 472.00,514.72 472.00,514.72
             470.09,514.40 464.94,513.41 463.65,512.07
             461.39,509.71 464.71,505.94 466.13,504.00
             470.15,498.50 476.31,489.16 482.04,485.86 Z
           M 488.00,488.00
           C 483.09,488.17 481.25,488.33 479.00,493.00
             484.59,494.21 485.71,493.20 488.00,488.00 Z
           M 498.00,490.00
           C 492.10,489.30 490.20,488.77 488.00,495.00
             494.26,496.10 495.95,496.72 498.00,490.00 Z
           M 597.06,489.00
           C 599.23,492.76 597.38,493.99 597.06,498.00
             596.93,500.88 597.62,504.11 598.00,507.00
             591.06,504.29 594.35,493.87 597.06,489.00 Z
           M 426.00,497.00
           C 426.00,497.00 440.00,496.36 440.00,496.36
             440.00,496.36 454.00,490.00 454.00,490.00
             450.23,496.67 441.50,500.33 434.00,499.91
             434.00,499.91 426.00,499.00 426.00,499.00
             426.00,499.00 426.00,497.00 426.00,497.00 Z
           M 509.00,492.00
           C 502.45,490.43 500.92,490.82 498.00,497.00
             498.00,497.00 507.00,498.00 507.00,498.00
             507.00,498.00 509.00,492.00 509.00,492.00 Z
           M 519.00,494.00
           C 512.49,492.44 511.14,492.63 509.00,499.00
             509.00,499.00 516.00,501.00 516.00,501.00
             516.00,501.00 519.00,494.00 519.00,494.00 Z
           M 528.00,495.00
           C 528.00,495.00 520.00,494.00 520.00,494.00
             520.00,494.00 519.00,501.00 519.00,501.00
             525.75,502.62 527.57,502.24 528.00,495.00 Z
           M 255.00,495.00
           C 255.00,495.00 241.00,499.96 241.00,499.96
             241.00,499.96 234.60,502.01 234.60,502.01
             234.60,502.01 233.00,507.00 233.00,507.00
             242.50,502.52 244.67,502.00 255.00,502.00
             255.00,502.00 255.00,495.00 255.00,495.00 Z
           M 482.00,496.00
           C 475.46,495.67 474.06,497.33 471.00,503.00
             478.02,504.64 479.50,502.51 482.00,496.00 Z
           M 539.00,497.00
           C 539.00,497.00 531.00,496.00 531.00,496.00
             531.00,496.00 529.00,503.00 529.00,503.00
             529.00,503.00 538.00,505.00 538.00,505.00
             538.00,505.00 539.00,497.00 539.00,497.00 Z
           M 494.00,499.00
           C 494.00,499.00 485.00,497.00 485.00,497.00
             485.00,497.00 480.00,505.00 480.00,505.00
             489.34,507.10 489.29,508.49 494.00,499.00 Z
           M 542.00,497.00
           C 542.00,497.00 540.00,505.00 540.00,505.00
             540.00,505.00 547.00,506.00 547.00,506.00
             547.00,506.00 548.00,498.00 548.00,498.00
             548.00,498.00 542.00,497.00 542.00,497.00 Z
           M 558.00,500.00
           C 558.00,500.00 550.00,499.00 550.00,499.00
             550.00,499.00 549.00,507.00 549.00,507.00
             549.00,507.00 557.00,508.00 557.00,508.00
             557.00,508.00 558.00,500.00 558.00,500.00 Z
           M 505.00,501.00
           C 496.94,499.94 496.37,498.96 492.00,508.00
             501.65,508.44 501.05,510.83 505.00,501.00 Z
           M 364.00,501.00
           C 364.09,505.60 376.72,505.30 380.00,504.00
             380.00,504.00 364.00,501.00 364.00,501.00 Z
           M 567.00,509.00
           C 566.91,502.43 566.89,501.24 560.00,501.00
             560.07,507.49 560.16,508.59 567.00,509.00 Z
           M 515.00,503.00
           C 506.89,501.57 507.17,502.11 504.00,510.00
             512.24,510.66 513.09,512.29 515.00,503.00 Z
           M 571.00,502.00
           C 569.28,506.35 569.41,509.15 574.00,511.00
             573.94,506.47 574.30,505.35 571.00,502.00 Z
           M 327.00,503.00
           C 327.00,503.00 326.00,503.00 326.00,503.00
             326.00,503.00 327.00,504.00 327.00,504.00
             327.00,504.00 327.00,503.00 327.00,503.00 Z
           M 356.00,504.12
           C 349.20,502.07 341.86,503.04 335.00,504.12
             333.03,504.60 329.27,505.07 328.00,506.73
             326.64,508.54 327.71,512.83 328.00,515.00
             334.90,513.71 350.09,507.89 356.00,504.12 Z
           M 360.00,504.00
           C 360.00,504.00 349.00,510.00 349.00,510.00
             349.00,510.00 359.00,514.00 359.00,514.00
             360.40,509.66 361.07,508.57 360.00,504.00 Z
           M 525.00,505.00
           C 518.50,503.92 517.16,504.12 516.00,511.00
             522.40,512.50 523.75,511.49 525.00,505.00 Z
           M 260.00,506.10
           C 254.14,504.95 246.22,503.62 241.00,507.00
             241.00,507.00 249.00,506.10 249.00,506.10
             249.00,506.10 260.00,506.10 260.00,506.10 Z
           M 421.00,505.00
           C 421.00,505.00 420.00,505.00 420.00,505.00
             420.00,505.00 421.00,506.00 421.00,506.00
             421.00,506.00 421.00,505.00 421.00,505.00 Z
           M 475.00,507.00
           C 469.63,504.95 467.97,505.45 466.00,511.00
             471.22,511.24 472.16,511.75 475.00,507.00 Z
           M 529.00,505.00
           C 529.00,505.00 526.00,513.00 526.00,513.00
             526.00,513.00 536.00,514.00 536.00,514.00
             536.00,514.00 537.00,507.00 537.00,507.00
             537.00,507.00 529.00,505.00 529.00,505.00 Z
           M 420.00,506.00
           C 420.00,506.00 411.00,515.00 411.00,515.00
             416.36,513.42 418.22,511.22 420.00,506.00 Z
           M 324.00,507.00
           C 324.00,507.00 315.00,509.00 315.00,509.00
             315.00,509.00 315.00,519.00 315.00,519.00
             315.00,519.00 325.00,517.00 325.00,517.00
             325.00,517.00 324.00,507.00 324.00,507.00 Z
           M 432.00,511.00
           C 434.32,507.53 439.11,507.21 443.00,506.00
             440.14,511.56 437.71,510.98 432.00,511.00 Z
           M 238.00,508.00
           C 227.18,510.54 233.09,512.00 217.00,512.00
             217.38,512.55 217.38,513.22 218.54,513.91
             222.70,516.37 234.74,510.93 238.00,508.00 Z
           M 488.00,510.00
           C 482.19,507.58 479.37,506.89 475.00,512.00
             480.76,513.90 484.19,515.52 488.00,510.00 Z
           M 547.00,509.00
           C 547.00,509.00 540.00,508.00 540.00,508.00
             539.09,514.20 539.75,514.78 546.00,515.00
             546.00,515.00 547.00,509.00 547.00,509.00 Z
           M 255.00,509.00
           C 248.47,509.00 236.91,508.86 233.89,516.09
             232.75,518.82 233.00,523.95 233.00,527.00
             242.60,531.55 249.41,547.85 257.00,556.00
             257.00,556.00 262.00,546.00 262.00,546.00
             262.00,546.00 255.00,546.00 255.00,546.00
             255.00,546.00 255.00,509.00 255.00,509.00 Z
           M 550.00,509.00
           C 547.29,516.01 552.81,515.95 558.00,516.00
             558.00,516.00 558.00,511.00 558.00,511.00
             558.00,511.00 550.00,509.00 550.00,509.00 Z
           M 204.00,509.00
           C 204.00,509.00 210.00,512.00 210.00,512.00
             210.00,512.00 210.00,514.00 210.00,514.00
             205.69,513.96 205.22,513.00 204.00,509.00 Z
           M 267.00,511.00
           C 267.00,511.00 257.00,510.00 257.00,510.00
             257.00,510.00 257.00,543.00 257.00,543.00
             257.00,543.00 265.40,541.40 265.40,541.40
             265.40,541.40 267.00,533.00 267.00,533.00
             267.00,533.00 267.00,511.00 267.00,511.00 Z
           M 296.00,510.00
           C 296.00,510.00 291.00,511.00 291.00,511.00
             291.00,511.00 296.00,510.00 296.00,510.00 Z
           M 500.00,512.00
           C 500.00,512.00 491.00,510.00 491.00,510.00
             491.00,510.00 489.00,515.00 489.00,515.00
             489.00,515.00 499.00,516.00 499.00,516.00
             499.00,516.00 500.00,512.00 500.00,512.00 Z
           M 313.00,511.00
           C 304.88,511.21 305.03,512.39 305.00,520.00
             313.12,519.79 312.97,518.61 313.00,511.00 Z
           M 567.00,512.00
           C 567.00,512.00 560.00,511.00 560.00,511.00
             560.00,511.00 560.00,517.00 560.00,517.00
             560.00,517.00 567.00,518.00 567.00,518.00
             567.00,518.00 567.00,512.00 567.00,512.00 Z
           M 278.00,513.00
           C 278.00,513.00 270.00,512.00 270.00,512.00
             270.00,512.00 270.00,538.00 270.00,538.00
             278.69,535.06 278.00,535.10 278.00,524.00
             270.29,521.70 269.11,517.04 278.00,516.00
             278.00,516.00 278.00,513.00 278.00,513.00 Z
           M 302.00,512.00
           C 302.00,512.00 294.00,513.00 294.00,513.00
             294.00,513.00 294.00,520.00 294.00,520.00
             294.00,520.00 302.00,520.00 302.00,520.00
             302.00,520.00 302.00,512.00 302.00,512.00 Z
           M 511.00,513.00
           C 511.00,513.00 503.00,512.00 503.00,512.00
             503.00,512.00 502.00,516.00 502.00,516.00
             502.00,516.00 510.00,518.00 510.00,518.00
             510.00,518.00 511.00,513.00 511.00,513.00 Z
           M 291.00,514.00
           C 291.00,514.00 281.00,513.00 281.00,513.00
             281.00,513.00 281.00,518.00 281.00,518.00
             281.00,518.00 291.00,519.00 291.00,519.00
             291.00,519.00 291.00,514.00 291.00,514.00 Z
           M 351.00,513.00
           C 351.00,513.00 343.00,514.00 343.00,514.00
             343.00,514.00 351.00,513.00 351.00,513.00 Z
           M 575.00,519.00
           C 574.63,514.56 574.52,513.79 570.00,513.00
             570.00,513.00 569.00,518.00 569.00,518.00
             569.00,518.00 575.00,519.00 575.00,519.00 Z
           M 521.00,515.00
           C 516.45,514.23 514.90,513.30 513.00,518.00
             513.00,518.00 521.00,519.00 521.00,519.00
             521.00,519.00 521.00,515.00 521.00,515.00 Z
           M 167.00,523.00
           C 173.10,519.54 183.15,515.40 190.00,514.00
             190.00,514.00 197.42,531.00 197.42,531.00
             197.42,531.00 198.87,538.59 198.87,538.59
             198.87,538.59 188.00,544.54 188.00,544.54
             188.00,544.54 177.53,547.57 177.53,547.57
             177.53,547.57 173.85,541.00 173.85,541.00
             173.85,541.00 167.00,523.00 167.00,523.00 Z
           M 337.00,515.00
           C 337.00,515.00 322.00,521.00 322.00,521.00
             327.75,520.48 333.01,519.40 337.00,515.00 Z
           M 356.00,515.00
           C 356.00,515.00 355.00,515.00 355.00,515.00
             355.00,515.00 356.00,516.00 356.00,516.00
             356.00,516.00 356.00,515.00 356.00,515.00 Z
           M 535.00,516.00
           C 535.00,516.00 524.00,515.00 524.00,515.00
             525.13,521.42 533.26,523.57 535.00,516.00 Z
           M 356.00,519.00
           C 346.83,515.16 343.71,515.97 335.00,520.26
             332.65,521.41 329.70,522.67 328.60,525.21
             327.62,527.46 328.00,539.73 328.00,543.00
             328.00,543.00 348.00,542.00 348.00,542.00
             348.52,530.67 351.22,528.46 356.00,519.00 Z
           M 189.00,517.00
           C 189.00,517.00 170.00,524.00 170.00,524.00
             170.00,524.00 178.00,545.00 178.00,545.00
             178.00,545.00 197.00,538.00 197.00,538.00
             197.00,538.00 189.00,517.00 189.00,517.00 Z
           M 427.00,517.00
           C 420.78,517.14 397.59,518.66 393.00,521.00
             393.00,521.00 416.00,519.28 416.00,519.28
             416.00,519.28 427.00,517.00 427.00,517.00 Z
           M 546.00,518.00
           C 540.65,517.06 538.40,515.92 537.00,522.00
             541.64,521.98 544.29,522.88 546.00,518.00 Z
           M 558.00,519.00
           C 558.00,519.00 549.00,518.00 549.00,518.00
             549.00,518.00 548.00,523.00 548.00,523.00
             548.00,523.00 558.00,524.00 558.00,524.00
             558.00,524.00 558.00,519.00 558.00,519.00 Z
           M 285.00,521.00
           C 285.00,521.00 274.00,519.00 274.00,519.00
             276.74,522.52 281.08,522.55 285.00,521.00 Z
           M 561.00,519.00
           C 561.00,519.00 560.00,525.00 560.00,525.00
             560.00,525.00 566.00,525.00 566.00,525.00
             565.26,520.78 564.78,520.83 561.00,519.00 Z
           M 431.00,521.00
           C 431.00,521.00 419.00,521.99 419.00,521.99
             419.00,521.99 411.56,522.99 411.56,522.99
             411.56,522.99 409.00,527.00 409.00,527.00
             419.07,529.27 424.71,531.50 431.00,521.00 Z
           M 387.00,540.00
           C 387.00,540.00 372.74,525.06 372.74,525.06
             371.50,523.60 369.71,521.02 367.46,522.17
             365.85,522.98 359.78,532.52 366.15,537.27
             370.61,540.60 381.47,540.00 387.00,540.00 Z
           M 436.00,521.00
           C 436.00,521.00 435.00,521.00 435.00,521.00
             435.00,521.00 436.00,522.00 436.00,522.00
             436.00,522.00 436.00,521.00 436.00,521.00 Z
           M 576.00,522.00
           C 576.00,522.00 569.00,521.00 569.00,521.00
             569.00,521.00 569.00,526.00 569.00,526.00
             569.00,526.00 576.00,527.00 576.00,527.00
             576.00,527.00 576.00,522.00 576.00,522.00 Z
           M 309.00,523.00
           C 309.00,523.00 285.00,523.00 285.00,523.00
             291.61,523.30 302.93,525.41 309.00,523.00 Z
           M 314.00,522.00
           C 314.00,522.00 309.00,523.00 309.00,523.00
             309.00,523.00 314.00,522.00 314.00,522.00 Z
           M 407.00,523.00
           C 402.38,524.39 401.56,525.49 400.00,530.00
             400.00,530.00 407.00,523.00 407.00,523.00 Z
           M 500.13,522.83
           C 504.56,522.21 508.62,523.86 513.00,524.56
             513.00,524.56 538.85,528.72 538.85,528.72
             544.66,531.51 540.57,542.41 535.89,543.25
             535.89,543.25 527.00,543.25 527.00,543.25
             521.26,542.80 501.71,539.82 497.15,537.35
             491.43,534.26 496.09,525.28 500.13,522.83 Z
           M 325.00,525.00
           C 325.00,525.00 316.00,525.00 316.00,525.00
             316.00,525.00 316.00,543.00 316.00,543.00
             316.00,543.00 325.00,543.00 325.00,543.00
             325.00,543.00 325.00,525.00 325.00,525.00 Z
           M 433.00,524.00
           C 433.00,524.00 432.00,524.00 432.00,524.00
             432.00,524.00 433.00,525.00 433.00,525.00
             433.00,525.00 433.00,524.00 433.00,524.00 Z
           M 291.00,526.00
           C 291.00,526.00 281.00,525.00 281.00,525.00
             281.00,525.00 281.00,534.00 281.00,534.00
             281.00,534.00 291.00,534.00 291.00,534.00
             291.00,534.00 291.00,526.00 291.00,526.00 Z
           M 329.00,526.00
           C 336.53,525.83 344.27,521.65 351.00,526.00
             351.00,526.00 342.00,526.56 342.00,526.56
             342.00,526.56 329.00,529.00 329.00,529.00
             329.00,529.00 329.00,526.00 329.00,526.00 Z
           M 455.00,525.00
           C 455.00,525.00 450.00,530.00 450.00,530.00
             450.00,530.00 455.00,525.00 455.00,525.00 Z
           M 310.00,526.00
           C 306.46,526.62 306.20,526.58 305.00,530.00
             305.00,530.00 310.00,526.00 310.00,526.00 Z
           M 443.00,526.00
           C 436.23,526.32 415.48,532.46 410.00,536.00
             410.00,536.00 432.00,530.98 432.00,530.98
             432.00,530.98 443.00,526.00 443.00,526.00 Z
           M 294.00,534.00
           C 296.52,533.87 302.38,533.75 302.26,530.00
             302.22,528.86 301.54,528.07 300.57,527.57
             299.16,526.86 295.65,527.01 294.00,527.00
             294.00,527.00 294.00,534.00 294.00,534.00 Z
           M 313.00,527.00
           C 304.85,532.53 306.00,533.89 306.00,543.00
             306.00,543.00 313.00,543.00 313.00,543.00
             313.00,543.00 313.00,527.00 313.00,527.00 Z
           M 447.00,528.00
           C 440.41,530.37 434.01,532.10 430.00,538.00
             437.35,539.60 445.34,535.62 447.00,528.00 Z
           M 462.00,529.00
           C 445.39,533.96 445.63,536.92 433.00,543.00
             435.01,548.68 438.85,545.86 443.00,543.74
             449.13,540.60 458.83,535.13 462.00,529.00 Z
           M 400.00,530.00
           C 400.00,530.00 399.00,530.00 399.00,530.00
             399.00,530.00 400.00,531.00 400.00,531.00
             400.00,531.00 400.00,530.00 400.00,530.00 Z
           M 466.00,531.00
           C 466.00,531.00 458.00,536.96 458.00,536.96
             451.08,541.94 448.87,543.96 457.00,550.00
             457.00,550.00 466.00,531.00 466.00,531.00 Z
           M 335.00,537.00
           C 337.69,532.53 342.86,531.31 346.00,536.00
             346.00,536.00 335.00,537.00 335.00,537.00 Z
           M 291.00,535.00
           C 291.00,535.00 281.00,536.00 281.00,536.00
             281.00,536.00 281.00,543.00 281.00,543.00
             281.00,543.00 291.00,543.00 291.00,543.00
             291.00,543.00 291.00,535.00 291.00,535.00 Z
           M 303.00,535.00
           C 295.04,535.08 294.09,535.27 294.00,543.00
             294.00,543.00 303.00,543.00 303.00,543.00
             303.00,543.00 303.00,535.00 303.00,535.00 Z
           M 428.00,535.00
           C 423.30,537.34 422.25,539.41 420.00,544.00
             424.22,541.68 425.65,539.08 428.00,535.00 Z
           M 278.00,537.00
           C 273.52,538.23 271.76,538.50 270.00,543.00
             270.00,543.00 278.00,543.00 278.00,543.00
             278.00,543.00 278.00,537.00 278.00,537.00 Z
           M 351.96,539.00
           C 350.72,542.26 351.00,544.63 351.96,548.00
             355.03,559.26 366.68,564.62 377.00,567.57
             397.20,573.36 417.17,575.66 438.00,577.09
             438.00,577.09 445.00,577.82 445.00,577.82
             445.00,577.82 468.00,575.58 468.00,575.58
             476.05,574.41 492.46,572.34 496.91,564.96
             499.28,561.04 499.00,556.39 499.00,552.00
             490.40,554.51 488.04,559.17 467.00,563.20
             447.78,566.88 428.12,564.39 409.00,561.42
             386.54,557.94 369.23,555.43 351.96,539.00 Z
           M 420.00,544.00
           C 420.00,544.00 419.00,544.00 419.00,544.00
             419.00,544.00 420.00,545.00 420.00,545.00
             420.00,545.00 420.00,544.00 420.00,544.00 Z
           M 448.00,544.00
           C 448.00,544.00 447.00,544.00 447.00,544.00
             447.00,544.00 448.00,545.00 448.00,545.00
             448.00,545.00 448.00,544.00 448.00,544.00 Z
           M 352.00,556.00
           C 349.51,547.16 349.37,545.02 340.00,545.00
             340.00,545.00 318.00,546.00 318.00,546.00
             318.00,546.00 272.00,546.00 272.00,546.00
             262.88,546.02 261.57,547.99 259.00,557.00
             259.00,557.00 280.00,556.00 280.00,556.00
             280.00,556.00 352.00,556.00 352.00,556.00 Z
           M 447.00,545.00
           C 442.81,547.27 441.75,549.69 440.00,554.00
             445.30,552.14 446.36,550.50 447.00,545.00 Z
           M 203.00,563.00
           C 201.86,560.40 199.10,553.82 199.50,551.13
             200.01,547.69 204.84,546.31 207.58,548.04
             210.82,550.08 210.50,556.16 214.22,557.65
             216.84,558.70 222.43,556.02 225.00,555.00
             225.00,555.00 229.00,565.00 229.00,565.00
             229.00,565.00 217.00,570.00 217.00,570.00
             217.70,572.41 220.69,580.93 220.19,582.79
             219.34,586.01 214.23,588.06 211.70,585.58
             209.57,583.50 207.55,576.02 207.00,573.00
             207.00,573.00 192.00,578.00 192.00,578.00
             191.34,575.97 189.98,572.29 190.39,570.21
             191.13,566.38 199.66,564.16 203.00,563.00 Z
           M 625.00,548.00
           C 625.00,548.00 624.00,553.00 624.00,553.00
             624.00,553.00 625.00,548.00 625.00,548.00 Z
           M 207.00,550.00
           C 207.00,550.00 202.00,550.00 202.00,550.00
             202.00,550.00 206.00,565.00 206.00,565.00
             199.97,566.63 192.75,567.50 194.00,575.00
             194.00,575.00 209.00,570.00 209.00,570.00
             209.00,570.00 213.00,584.00 213.00,584.00
             213.00,584.00 218.00,583.00 218.00,583.00
             217.39,579.64 214.01,571.83 215.20,569.39
             216.53,566.67 223.18,564.94 226.00,564.00
             226.00,564.00 224.00,559.00 224.00,559.00
             224.00,559.00 212.00,563.00 212.00,563.00
             212.00,563.00 207.00,550.00 207.00,550.00 Z
           M 235.00,553.00
           C 235.00,553.00 234.00,553.00 234.00,553.00
             234.00,553.00 235.00,554.00 235.00,554.00
             235.00,554.00 235.00,553.00 235.00,553.00 Z
           M 623.00,553.00
           C 623.00,553.00 615.00,559.39 615.00,559.39
             615.00,559.39 608.00,564.00 608.00,564.00
             615.10,563.24 620.61,559.95 623.00,553.00 Z
           M 353.00,556.00
           C 353.00,556.00 352.00,556.00 352.00,556.00
             352.00,556.00 353.00,557.00 353.00,557.00
             353.00,557.00 353.00,556.00 353.00,556.00 Z
           M 509.00,556.00
           C 509.00,556.00 504.00,557.00 504.00,557.00
             504.00,557.00 509.00,556.00 509.00,556.00 Z
           M 237.00,557.00
           C 237.00,557.00 236.00,557.00 236.00,557.00
             236.00,557.00 237.00,558.00 237.00,558.00
             237.00,558.00 237.00,557.00 237.00,557.00 Z
           M 354.00,557.00
           C 354.00,557.00 353.00,557.00 353.00,557.00
             353.00,557.00 354.00,558.00 354.00,558.00
             354.00,558.00 354.00,557.00 354.00,557.00 Z
           M 519.00,557.00
           C 519.00,557.00 511.00,558.00 511.00,558.00
             511.00,558.00 519.00,557.00 519.00,557.00 Z
           M 592.00,557.00
           C 592.00,557.00 591.00,557.00 591.00,557.00
             591.00,557.00 592.00,558.00 592.00,558.00
             592.00,558.00 592.00,557.00 592.00,557.00 Z
           M 355.00,558.00
           C 355.05,561.30 356.22,561.59 359.00,563.00
             359.00,563.00 355.00,558.00 355.00,558.00 Z
           M 528.00,558.00
           C 528.00,558.00 520.00,559.00 520.00,559.00
             520.00,559.00 528.00,558.00 528.00,558.00 Z
           M 591.00,558.00
           C 591.00,558.00 580.00,562.00 580.00,562.00
             584.86,561.96 588.18,562.49 591.00,558.00 Z
           M 548.00,560.00
           C 548.00,560.00 528.00,560.00 528.00,560.00
             534.25,560.14 542.16,562.32 548.00,560.00 Z
           M 567.00,561.00
           C 567.00,561.00 552.00,562.00 552.00,562.00
             552.00,562.00 567.00,561.00 567.00,561.00 Z
           M 243.00,563.00
           C 243.00,563.00 242.00,563.00 242.00,563.00
             242.00,563.00 243.00,564.00 243.00,564.00
             243.00,564.00 243.00,563.00 243.00,563.00 Z
           M 360.00,563.00
           C 360.80,565.44 361.60,565.47 364.00,565.00
             364.00,565.00 360.00,563.00 360.00,563.00 Z
           M 246.00,564.00
           C 246.00,564.00 245.00,564.00 245.00,564.00
             245.00,564.00 246.00,565.00 246.00,565.00
             246.00,565.00 246.00,564.00 246.00,564.00 Z
           M 411.00,598.44
           C 420.27,597.26 430.38,599.43 436.47,607.04
             447.53,620.85 442.04,645.59 421.00,648.70
             415.35,649.53 405.91,648.85 401.00,645.85
             388.22,638.04 384.81,618.69 394.39,607.04
             399.11,601.30 404.05,599.74 411.00,598.44 Z
           M 316.00,599.00
           C 318.14,599.00 322.73,598.70 324.40,600.02
             326.10,601.37 325.96,604.05 326.00,606.00
             326.00,606.00 326.00,633.00 326.00,633.00
             326.00,637.54 327.59,647.36 321.95,648.67
             316.10,650.02 316.03,645.12 316.00,641.00
             316.00,641.00 316.00,619.00 316.00,619.00
             316.00,619.00 316.00,599.00 316.00,599.00 Z
           M 343.00,609.00
           C 342.06,612.85 342.02,614.07 342.00,618.00
             342.00,618.00 342.00,640.00 342.00,640.00
             341.99,642.08 342.15,645.74 340.83,647.43
             339.62,648.96 331.21,652.09 331.24,641.00
             331.24,641.00 331.24,610.00 331.24,610.00
             332.67,603.62 335.04,599.44 342.00,599.04
             345.06,598.87 348.32,599.01 350.96,600.74
             360.23,606.81 364.03,630.02 374.00,638.00
             374.94,634.15 374.98,632.93 375.00,629.00
             375.00,629.00 375.00,608.00 375.00,608.00
             375.00,606.01 374.77,602.19 376.02,600.60
             376.97,599.40 378.55,599.11 380.00,599.11
             385.32,599.11 384.97,602.93 385.00,607.00
             385.00,607.00 384.43,641.00 384.43,641.00
             382.53,647.59 376.27,649.77 370.00,648.67
             362.30,647.32 360.20,642.31 357.08,636.00
             353.12,627.98 347.99,615.85 343.00,609.00 Z
           M 440.00,599.00
           C 442.71,599.00 448.42,598.61 450.61,600.02
             452.91,601.51 453.62,604.59 454.53,607.00
             454.53,607.00 460.58,623.00 460.58,623.00
             462.04,627.53 465.19,638.12 471.00,638.26
             475.07,638.35 477.68,633.08 479.24,630.00
             482.56,623.42 487.91,607.43 492.21,603.34
             498.65,597.21 510.53,597.43 516.37,604.30
             519.15,607.58 522.10,615.76 523.80,620.00
             526.53,626.82 532.83,641.51 534.00,647.91
             530.93,648.74 527.17,649.63 524.27,647.91
             521.71,646.22 520.95,642.67 519.94,640.00
             519.94,640.00 512.29,620.00 512.29,620.00
             510.70,615.97 508.97,610.38 503.99,609.54
             497.99,608.53 495.20,616.65 493.45,621.00
             489.28,631.38 485.51,647.59 472.00,647.98
             455.15,648.47 453.58,635.16 448.58,622.00
             448.58,622.00 440.00,599.00 440.00,599.00 Z
           M 413.00,607.33
           C 408.38,608.43 404.60,609.93 401.82,614.04
             396.06,622.54 398.42,639.28 414.00,639.96
             416.91,640.09 420.35,639.98 423.00,638.69
             437.88,631.41 433.92,605.48 413.00,607.33 Z
           M 444.00,650.00
           C 444.00,650.00 450.00,650.00 450.00,650.00
             450.00,650.00 450.00,658.00 450.00,658.00
             463.34,654.22 462.00,663.57 462.00,673.00
             452.44,672.20 458.36,666.93 454.42,663.74
             451.04,661.01 450.10,667.04 450.01,669.00
             450.01,669.00 450.01,673.00 450.01,673.00
             450.01,673.00 444.00,673.00 444.00,673.00
             444.00,673.00 444.00,650.00 444.00,650.00 Z
           M 340.00,651.00
           C 341.61,651.02 344.17,650.91 345.62,651.57
             348.82,653.03 352.78,661.68 354.00,665.00
             354.00,665.00 356.00,665.00 356.00,665.00
             357.08,661.58 361.07,653.08 364.38,651.57
             365.83,650.91 368.39,651.02 370.00,651.00
             370.00,651.00 370.00,673.00 370.00,673.00
             370.00,673.00 364.00,673.00 364.00,673.00
             364.00,673.00 363.00,664.00 363.00,664.00
             361.40,669.00 357.29,675.88 351.21,671.40
             349.12,669.86 347.32,666.28 346.00,664.00
             346.00,664.00 346.00,673.00 346.00,673.00
             346.00,673.00 340.00,673.00 340.00,673.00
             340.00,673.00 340.00,651.00 340.00,651.00 Z
           M 482.00,664.00
           C 482.11,659.73 482.41,655.53 486.21,652.74
             489.42,650.38 501.44,650.24 504.89,652.17
             507.19,653.46 508.43,655.56 509.20,658.00
             510.87,663.37 508.90,670.87 502.96,672.78
             501.06,673.12 496.16,673.03 494.00,672.78
             491.65,672.96 489.22,673.00 487.10,671.83
             484.71,670.51 483.42,668.22 482.00,666.00
             481.94,667.69 482.09,669.98 480.98,671.40
             479.27,673.58 467.59,673.47 465.43,671.98
             462.56,669.99 462.76,665.17 466.23,663.60
             466.23,663.60 475.00,662.00 475.00,662.00
             475.00,662.00 464.00,662.00 464.00,662.00
             464.00,662.00 464.00,657.00 464.00,657.00
             464.00,657.00 477.00,657.00 477.00,657.00
             477.00,657.00 477.00,660.00 477.00,660.00
             477.00,660.00 481.00,660.00 481.00,660.00
             481.00,660.00 482.00,664.00 482.00,664.00 Z
           M 491.31,657.81
           C 487.30,660.99 487.68,667.70 497.00,666.94
             504.63,666.32 503.29,659.52 501.40,657.81
             499.27,656.33 493.78,657.00 491.31,657.81 Z
           M 372.00,657.00
           C 376.10,657.00 384.64,656.03 387.40,659.31
             389.67,662.00 389.00,669.45 389.00,673.00
             386.16,672.91 375.94,673.17 374.23,672.40
             370.50,670.72 370.50,665.28 374.23,663.60
             374.23,663.60 383.00,662.00 383.00,662.00
             383.00,662.00 372.00,662.00 372.00,662.00
             372.00,662.00 372.00,657.00 372.00,657.00 Z
           M 391.00,657.00
           C 391.00,657.00 412.00,657.00 412.00,657.00
             413.92,657.00 417.17,656.88 418.89,657.60
             423.05,659.32 424.83,669.34 421.40,671.97
             419.51,673.39 409.31,673.31 407.31,671.97
             404.60,670.16 404.60,665.84 407.31,664.02
             408.58,663.17 413.79,662.63 416.00,662.00
             412.62,662.00 401.69,661.44 399.31,663.02
             394.25,666.40 400.84,672.18 391.00,673.00
             391.00,673.00 391.00,657.00 391.00,657.00 Z
           M 430.00,673.00
           C 428.57,672.89 426.94,672.98 425.67,672.01
             423.38,670.10 423.21,659.91 425.67,658.02
             426.77,657.09 428.59,657.08 430.00,657.02
             433.58,656.87 438.71,656.63 441.33,659.57
             443.26,661.88 443.99,669.93 441.33,671.98
             440.17,672.96 438.47,672.88 437.00,673.00
             437.00,673.00 436.00,662.00 436.00,662.00
             429.76,663.95 430.06,667.19 430.00,673.00 Z
           M 477.00,660.00
           C 477.00,660.00 476.00,660.00 476.00,660.00
             476.00,660.00 477.00,661.00 477.00,661.00
             477.00,661.00 477.00,660.00 477.00,660.00 Z" 
  />
</svg>
